# Blender v2.91.2 OBJ File: 'pvz_house_w_yard.blend'
# www.blender.org
o Cylinder_Cylinder.001
v -10.064097 4.576597 -30.388000
v -10.187572 0.549268 -30.518885
v -10.053959 0.549268 -30.491858
v -10.216962 4.576597 -30.418921
v -10.313347 0.549268 -30.572573
v -10.360859 4.576597 -30.480345
v -10.426449 0.549268 -30.650862
v -10.490257 4.576597 -30.569912
v -10.522533 0.549268 -30.750738
v -10.600184 4.576597 -30.684181
v -10.597906 0.549268 -30.868370
v -10.686417 4.576597 -30.818760
v -10.649671 0.549268 -30.999233
v -10.775578 4.576597 -31.127581
v -10.675838 0.549268 -31.138298
v -10.675404 0.549268 -31.280224
v -10.775081 4.576597 -31.289955
v -10.648382 0.549268 -31.419554
v -10.744166 4.576597 -31.449360
v -10.595814 0.549268 -31.550934
v -10.684025 4.576597 -31.599669
v -10.519718 0.549268 -31.669315
v -10.596964 4.576597 -31.735107
v -10.423019 0.549268 -31.770149
v -10.486333 4.576597 -31.850468
v -10.309433 0.549268 -31.849560
v -10.356381 4.576597 -31.941322
v -10.183327 0.549268 -31.904495
v -10.212104 4.576597 -32.004173
v -10.049542 0.549268 -31.932846
v -9.903087 4.576597 -32.037380
v -9.913225 0.549268 -31.933521
v -9.750221 4.576597 -32.006462
v -9.779612 0.549268 -31.906496
v -9.653836 0.549268 -31.852808
v -9.476927 4.576597 -31.855471
v -9.540733 0.549268 -31.774521
v -9.444651 0.549268 -31.674641
v -9.366999 4.576597 -31.741201
v -9.369278 0.549268 -31.557009
v -9.280766 4.576597 -31.606621
v -9.317513 0.549268 -31.426147
v -9.221542 4.576597 -31.456903
v -9.291346 0.549268 -31.287081
v -9.191606 4.576597 -31.297800
v -9.291780 0.549268 -31.145157
v -9.192102 4.576597 -31.135426
v -9.318802 0.549268 -31.005827
v -9.223017 4.576597 -30.976023
v -9.371369 0.549268 -30.874447
v -9.283160 4.576597 -30.825712
v -9.447467 0.549268 -30.756065
v -9.480851 4.576597 -30.574911
v -9.544166 0.549268 -30.655231
v -9.657750 0.549268 -30.575821
v -9.610804 4.576597 -30.484060
v -9.783858 0.549268 -30.520884
v -9.606325 4.576597 -31.945038
v -9.755080 4.576597 -30.421207
v -9.917643 0.549268 -30.492535
v -9.908139 4.576597 -30.388773
v -10.085905 -0.483360 -32.329906
v -8.909675 -0.483360 -31.328096
v -9.881280 -0.483360 -30.095474
v -10.092755 -0.483360 -30.094427
v -9.673735 -0.483360 -30.139456
v -9.478098 -0.483360 -30.224682
v -9.301886 -0.483360 -30.347876
v -9.151873 -0.483360 -30.504303
v -9.033821 -0.483360 -30.687956
v -8.952269 -0.483360 -30.891771
v -8.910350 -0.483360 -31.107920
v -8.950271 -0.483360 -31.543837
v -9.030575 -0.483360 -31.746851
v -9.147504 -0.483360 -31.929338
v -9.296564 -0.483360 -32.084286
v -9.472026 -0.483360 -32.205738
v -9.667146 -0.483360 -32.289028
v -9.874429 -0.483360 -32.330952
v -10.293450 -0.483360 -32.285923
v -10.489087 -0.483360 -32.200699
v -10.665298 -0.483360 -32.077503
v -10.815312 -0.483360 -31.921076
v -10.933363 -0.483360 -31.737425
v -11.014915 -0.483360 -31.533609
v -11.056834 -0.483360 -31.317459
v -11.057508 -0.483360 -31.097282
v -11.016913 -0.483360 -30.881542
v -10.936608 -0.483360 -30.678530
v -10.819678 -0.483360 -30.496042
v -10.670620 -0.483360 -30.341095
v -10.495158 -0.483360 -30.219643
v -10.300036 -0.483360 -30.136354
v -10.745640 4.576597 -30.968477
v -10.059045 4.576597 -32.036610
v -9.370220 4.576597 -30.690275
vn -0.0717 0.6754 0.7340
vn -0.2927 0.1726 0.9405
vn -0.0957 0.1729 0.9803
vn -0.2190 0.6755 0.7041
vn -0.4765 0.1719 0.8622
vn -0.3563 0.6757 0.6454
vn -0.6389 0.1708 0.7501
vn -0.4775 0.6761 0.5612
vn -0.7740 0.1695 0.6100
vn -0.5782 0.6765 0.4562
vn -0.8776 0.1683 0.4489
vn -0.6552 0.6769 0.3356
vn -0.9472 0.1673 0.2734
vn -0.7325 0.6774 0.0672
vn -0.9819 0.1666 0.0899
vn -0.9814 0.1664 -0.0958
vn -0.7321 0.6775 -0.0715
vn -0.9460 0.1666 -0.2781
vn -0.7057 0.6774 -0.2076
vn -0.8765 0.1673 -0.4514
vn -0.6540 0.6772 -0.3372
vn -0.7742 0.1683 -0.6102
vn -0.5779 0.6769 -0.4559
vn -0.6414 0.1695 -0.7482
vn -0.4790 0.6765 -0.5594
vn -0.4818 0.1708 -0.8595
vn -0.3600 0.6761 -0.6429
vn -0.3007 0.1719 -0.9381
vn -0.2247 0.6757 -0.7021
vn -0.1053 0.1726 -0.9793
vn 0.0716 0.6754 -0.7340
vn 0.0957 0.1729 -0.9803
vn 0.2190 0.6755 -0.7041
vn 0.2927 0.1726 -0.9405
vn 0.4764 0.1719 -0.8622
vn 0.4775 0.6760 -0.5612
vn 0.6389 0.1708 -0.7501
vn 0.7740 0.1695 -0.6100
vn 0.5782 0.6765 -0.4562
vn 0.8776 0.1683 -0.4489
vn 0.6552 0.6769 -0.3356
vn 0.9472 0.1673 -0.2734
vn 0.7069 0.6772 -0.2043
vn 0.9819 0.1666 -0.0899
vn 0.7325 0.6774 -0.0672
vn 0.9814 0.1664 0.0958
vn 0.7321 0.6775 0.0715
vn 0.9460 0.1666 0.2781
vn 0.7057 0.6774 0.2076
vn 0.8765 0.1673 0.4515
vn 0.6540 0.6772 0.3372
vn 0.7742 0.1683 0.6101
vn 0.4790 0.6765 0.5594
vn 0.6415 0.1695 0.7482
vn 0.4818 0.1708 0.8595
vn 0.3600 0.6761 0.6429
vn 0.3007 0.1719 0.9381
vn 0.3563 0.6757 -0.6454
vn 0.2247 0.6757 0.7021
vn 0.1053 0.1726 0.9793
vn 0.0786 0.6755 0.7332
vn -0.0894 -0.5420 -0.8356
vn 0.8325 -0.5488 -0.0766
vn 0.0894 -0.5420 0.8356
vn -0.0817 -0.5417 0.8366
vn 0.2556 -0.5428 0.8000
vn 0.4094 -0.5440 0.7324
vn 0.5446 -0.5455 0.6370
vn 0.6569 -0.5468 0.5190
vn 0.7433 -0.5480 0.3837
vn 0.8019 -0.5488 0.2362
vn 0.8319 -0.5490 0.0812
vn 0.8035 -0.5480 -0.2327
vn 0.7449 -0.5468 -0.3822
vn 0.6576 -0.5455 -0.5197
vn 0.5433 -0.5440 -0.6394
vn 0.4055 -0.5428 -0.7355
vn 0.2493 -0.5420 -0.8026
vn 0.0817 -0.5417 -0.8366
vn -0.2556 -0.5428 -0.8000
vn -0.4094 -0.5440 -0.7324
vn -0.5447 -0.5455 -0.6370
vn -0.6569 -0.5469 -0.5190
vn -0.7433 -0.5480 -0.3837
vn -0.8019 -0.5488 -0.2362
vn -0.8319 -0.5490 -0.0812
vn -0.8325 -0.5488 0.0766
vn -0.8035 -0.5480 0.2327
vn -0.7449 -0.5468 0.3822
vn -0.6576 -0.5455 0.5197
vn -0.5433 -0.5440 0.6394
vn -0.4055 -0.5428 0.7355
vn -0.2493 -0.5420 0.8026
vn -0.7069 0.6772 0.2043
vn -0.0786 0.6755 -0.7332
vn 0.5779 0.6769 0.4559
s 1
f 1//1 2//2 3//3
f 4//4 5//5 2//2
f 6//6 7//7 5//5
f 8//8 9//9 7//7
f 10//10 11//11 9//9
f 12//12 13//13 11//11
f 13//13 14//14 15//15
f 14//14 16//16 15//15
f 17//17 18//18 16//16
f 19//19 20//20 18//18
f 21//21 22//22 20//20
f 23//23 24//24 22//22
f 25//25 26//26 24//24
f 27//27 28//28 26//26
f 29//29 30//30 28//28
f 30//30 31//31 32//32
f 32//32 33//33 34//34
f 33//33 35//35 34//34
f 35//35 36//36 37//37
f 36//36 38//38 37//37
f 39//39 40//40 38//38
f 41//41 42//42 40//40
f 43//43 44//44 42//42
f 45//45 46//46 44//44
f 47//47 48//48 46//46
f 49//49 50//50 48//48
f 51//51 52//52 50//50
f 52//52 53//53 54//54
f 53//53 55//55 54//54
f 56//56 57//57 55//55
f 51//51 58//58 21//21
f 59//59 60//60 57//57
f 61//61 3//3 60//60
f 62//62 63//63 64//64
f 60//60 65//65 64//64
f 57//57 64//64 66//66
f 55//55 66//66 67//67
f 54//54 67//67 68//68
f 52//52 68//68 69//69
f 50//50 69//69 70//70
f 48//48 70//70 71//71
f 46//46 71//71 72//72
f 44//44 72//72 63//63
f 42//42 63//63 73//73
f 40//40 73//73 74//74
f 38//38 74//74 75//75
f 76//76 38//38 75//75
f 35//35 76//76 77//77
f 34//34 77//77 78//78
f 79//79 34//34 78//78
f 30//30 79//79 62//62
f 80//80 30//30 62//62
f 26//26 80//80 81//81
f 82//82 26//26 81//81
f 83//83 24//24 82//82
f 84//84 22//22 83//83
f 18//18 84//84 85//85
f 86//86 18//18 85//85
f 87//87 16//16 86//86
f 13//13 87//87 88//88
f 89//89 13//13 88//88
f 90//90 11//11 89//89
f 7//7 90//90 91//91
f 5//5 91//91 92//92
f 2//2 92//92 93//93
f 3//3 93//93 65//65
f 1//1 4//4 2//2
f 4//4 6//6 5//5
f 6//6 8//8 7//7
f 8//8 10//10 9//9
f 10//10 12//12 11//11
f 12//12 94//94 13//13
f 13//13 94//94 14//14
f 14//14 17//17 16//16
f 17//17 19//19 18//18
f 19//19 21//21 20//20
f 21//21 23//23 22//22
f 23//23 25//25 24//24
f 25//25 27//27 26//26
f 27//27 29//29 28//28
f 29//29 95//95 30//30
f 30//30 95//95 31//31
f 32//32 31//31 33//33
f 33//33 58//58 35//35
f 35//35 58//58 36//36
f 36//36 39//39 38//38
f 39//39 41//41 40//40
f 41//41 43//43 42//42
f 43//43 45//45 44//44
f 45//45 47//47 46//46
f 47//47 49//49 48//48
f 49//49 51//51 50//50
f 51//51 96//96 52//52
f 52//52 96//96 53//53
f 53//53 56//56 55//55
f 56//56 59//59 57//57
f 6//6 4//4 1//1
f 1//1 61//61 6//6
f 61//61 59//59 6//6
f 59//59 56//56 53//53
f 53//53 96//96 51//51
f 51//51 49//49 47//47
f 47//47 45//45 51//51
f 45//45 43//43 51//51
f 43//43 41//41 58//58
f 41//41 39//39 58//58
f 39//39 36//36 58//58
f 58//58 33//33 31//31
f 31//31 95//95 29//29
f 29//29 27//27 25//25
f 25//25 23//23 21//21
f 21//21 19//19 17//17
f 17//17 14//14 21//21
f 14//14 94//94 21//21
f 94//94 12//12 10//10
f 10//10 8//8 6//6
f 59//59 53//53 6//6
f 53//53 51//51 6//6
f 58//58 31//31 21//21
f 31//31 29//29 21//21
f 29//29 25//25 21//21
f 94//94 10//10 21//21
f 10//10 6//6 21//21
f 51//51 43//43 58//58
f 6//6 51//51 21//21
f 59//59 61//61 60//60
f 61//61 1//1 3//3
f 64//64 65//65 93//93
f 93//93 92//92 91//91
f 91//91 90//90 87//87
f 90//90 89//89 87//87
f 89//89 88//88 87//87
f 87//87 86//86 85//85
f 85//85 84//84 87//87
f 84//84 83//83 87//87
f 83//83 82//82 81//81
f 81//81 80//80 83//83
f 80//80 62//62 83//83
f 62//62 79//79 78//78
f 78//78 77//77 62//62
f 77//77 76//76 62//62
f 76//76 75//75 74//74
f 74//74 73//73 63//63
f 63//63 72//72 71//71
f 71//71 70//70 63//63
f 70//70 69//69 63//63
f 69//69 68//68 67//67
f 67//67 66//66 69//69
f 66//66 64//64 69//69
f 64//64 93//93 91//91
f 76//76 74//74 62//62
f 74//74 63//63 62//62
f 64//64 91//91 62//62
f 91//91 87//87 62//62
f 87//87 83//83 62//62
f 63//63 69//69 64//64
f 60//60 3//3 65//65
f 57//57 60//60 64//64
f 55//55 57//57 66//66
f 54//54 55//55 67//67
f 52//52 54//54 68//68
f 50//50 52//52 69//69
f 48//48 50//50 70//70
f 46//46 48//48 71//71
f 44//44 46//46 72//72
f 42//42 44//44 63//63
f 40//40 42//42 73//73
f 38//38 40//40 74//74
f 76//76 37//37 38//38
f 35//35 37//37 76//76
f 34//34 35//35 77//77
f 79//79 32//32 34//34
f 30//30 32//32 79//79
f 80//80 28//28 30//30
f 26//26 28//28 80//80
f 82//82 24//24 26//26
f 83//83 22//22 24//24
f 84//84 20//20 22//22
f 18//18 20//20 84//84
f 86//86 16//16 18//18
f 87//87 15//15 16//16
f 13//13 15//15 87//87
f 89//89 11//11 13//13
f 90//90 9//9 11//11
f 7//7 9//9 90//90
f 5//5 7//7 91//91
f 2//2 5//5 92//92
f 3//3 2//2 93//93
