# Blender v2.91.2 OBJ File: 'pvz_house_w_yard.blend'
# www.blender.org
o Cone_Cone.001
v -9.779116 2.488793 -33.872520
v -9.681451 2.498554 -33.869858
v -9.587540 2.527062 -33.868473
v -9.500990 2.573223 -33.868420
v -9.425129 2.635262 -33.869698
v -9.362871 2.710794 -33.872257
v -9.316610 2.796918 -33.876003
v -9.288122 2.890324 -33.880791
v -9.278503 2.987421 -33.886433
v -9.288122 3.084480 -33.892715
v -9.316610 3.177769 -33.899399
v -9.362872 3.263704 -33.906223
v -9.425129 3.338982 -33.912926
v -9.500991 3.400711 -33.919250
v -9.587540 3.446517 -33.924953
v -9.681451 3.474642 -33.929817
v -9.779116 3.484004 -33.933651
v -9.876781 3.474243 -33.936314
v -9.970692 3.445734 -33.937698
v -10.057241 3.399574 -33.937752
v -10.133102 3.337535 -33.936474
v -10.195360 3.262002 -33.933914
v -10.241621 3.175878 -33.930168
v -10.270109 3.082473 -33.925381
v -10.279728 2.985375 -33.919739
v -10.270108 2.888316 -33.913456
v -10.241621 2.795027 -33.906776
v -10.195359 2.709092 -33.899952
v -10.133101 2.633814 -33.893250
v -10.057240 2.572086 -33.886925
v -9.970691 2.526279 -33.881222
v -9.876780 2.498155 -33.876358
v -9.712658 2.864143 -35.893391
vn -0.0197 -0.7675 0.6407
vn 0.0333 -0.0613 -0.9976
vn 0.1366 -0.7519 0.6449
vn 0.2869 -0.7063 0.6471
vn 0.4261 -0.6322 0.6471
vn 0.5483 -0.5324 0.6449
vn 0.6489 -0.4105 0.6406
vn 0.7239 -0.2711 0.6344
vn 0.7701 -0.1197 0.6266
vn 0.7857 0.0379 0.6175
vn 0.7700 0.1955 0.6073
vn 0.7237 0.3468 0.5965
vn 0.6489 0.4858 0.5856
vn 0.5483 0.6073 0.5749
vn 0.4262 0.7067 0.5648
vn 0.2871 0.7801 0.5558
vn 0.1366 0.8252 0.5480
vn -0.0197 0.8401 0.5420
vn -0.1761 0.8246 0.5376
vn -0.3265 0.7790 0.5353
vn -0.4657 0.7048 0.5351
vn -0.5880 0.6049 0.5370
vn -0.6884 0.4831 0.5410
vn -0.7630 0.3439 0.5473
vn -0.8095 0.1922 0.5547
vn -0.8252 0.0346 0.5637
vn -0.8095 -0.1229 0.5741
vn -0.7635 -0.2741 0.5848
vn -0.6883 -0.4132 0.5961
vn -0.5878 -0.5347 0.6070
vn -0.4656 -0.6340 0.6174
vn -0.3266 -0.7075 0.6266
vn -0.1761 -0.7526 0.6345
s 1
f 1//1 33//2 2//3
f 2//3 33//2 3//4
f 3//4 33//2 4//5
f 4//5 33//2 5//6
f 5//6 33//2 6//7
f 6//7 33//2 7//8
f 7//8 33//2 8//9
f 8//9 33//2 9//10
f 9//10 33//2 10//11
f 10//11 33//2 11//12
f 11//12 33//2 12//13
f 12//13 33//2 13//14
f 13//14 33//2 14//15
f 14//15 33//2 15//16
f 15//16 33//2 16//17
f 16//17 33//2 17//18
f 17//18 33//2 18//19
f 18//19 33//2 19//20
f 19//20 33//2 20//21
f 20//21 33//2 21//22
f 21//22 33//2 22//23
f 22//23 33//2 23//24
f 23//24 33//2 24//25
f 24//25 33//2 25//26
f 25//26 33//2 26//27
f 26//27 33//2 27//28
f 27//28 33//2 28//29
f 28//29 33//2 29//30
f 29//30 33//2 30//31
f 30//31 33//2 31//32
f 8//9 16//17 24//25
f 31//32 33//2 32//33
f 32//33 33//2 1//1
f 32//33 1//1 2//3
f 2//3 3//4 4//5
f 4//5 5//6 6//7
f 6//7 7//8 4//5
f 7//8 8//9 4//5
f 8//9 9//10 10//11
f 10//11 11//12 8//9
f 11//12 12//13 8//9
f 12//13 13//14 16//17
f 13//14 14//15 16//17
f 14//15 15//16 16//17
f 16//17 17//18 18//19
f 18//19 19//20 20//21
f 20//21 21//22 22//23
f 22//23 23//24 24//25
f 24//25 25//26 26//27
f 26//27 27//28 28//29
f 28//29 29//30 32//33
f 29//30 30//31 32//33
f 30//31 31//32 32//33
f 32//33 2//3 4//5
f 16//17 18//19 24//25
f 18//19 20//21 24//25
f 20//21 22//23 24//25
f 24//25 26//27 32//33
f 26//27 28//29 32//33
f 32//33 4//5 8//9
f 8//9 12//13 16//17
f 32//33 8//9 24//25
