# Blender v2.91.2 OBJ File: 'pvz_house_w_yard.blend'
# www.blender.org
o badan_rumah_Cube.011
v -12.531542 11.850037 10.540072
v -12.531542 20.353479 0.351098
v -12.531542 11.850037 -9.837876
v -12.531542 20.353479 0.351098
v 12.217038 11.850037 10.540072
v 12.217038 20.353479 0.351098
v 12.217038 11.850037 -9.837876
v 12.217038 20.353479 0.351098
v -12.137365 0.030718 7.230809
v -12.137365 13.373026 7.230809
v -12.137365 0.030718 -5.657933
v -12.137365 13.373026 -5.657933
v 12.122210 0.030718 7.230809
v 12.122210 13.373026 7.230809
v 12.122210 0.030718 -5.657933
v 12.122210 13.373026 -5.657933
v 4.035684 0.030718 -5.657933
v -4.050840 0.030718 -5.657933
v -4.050840 11.094702 -5.657933
v 4.035684 11.094702 -5.657933
v -4.050840 0.030718 7.230809
v 4.035684 0.030718 7.230809
v 4.035684 13.373026 7.230809
v -4.050840 13.373026 7.230809
v 2.892070 0.030718 -5.657933
v -2.907226 0.030718 -5.657933
v -2.907226 11.094702 -5.657933
v 2.892070 11.094702 -5.657933
v -1.355332 0.030718 7.230809
v 1.340176 0.030718 7.230809
v 1.340176 13.373026 7.230809
v -1.355332 13.373026 7.230809
v -12.137365 3.718713 7.230809
v -12.137365 7.406707 7.230809
v -12.137365 7.406707 -5.657933
v -12.137365 3.718713 -5.657933
v 12.122210 7.406707 -5.657933
v 12.122210 3.718713 -5.657933
v 12.122210 7.406707 7.230809
v 12.122210 3.718713 7.230809
v -2.907226 8.958601 -5.657933
v -2.907226 3.718713 -5.657933
v 2.892070 8.958601 -5.657933
v 2.892070 3.718713 -5.657933
v -12.137365 3.718713 -6.491790
v -12.137365 0.030718 -6.491790
v -4.050840 0.030718 -6.491790
v 4.035684 13.373026 -6.491790
v 12.122210 13.373026 -6.491790
v 12.122210 3.718713 -6.491790
v 12.122210 0.030718 -6.491790
v 4.035684 0.030718 -6.491790
v -2.907226 0.030718 -6.491790
v -12.137365 13.373026 -6.491790
v -4.050840 13.373026 -6.491790
v 2.892070 13.373026 -6.491790
v 2.892070 0.030718 -6.491790
v -2.907226 13.373026 -6.491790
v -2.907226 3.718713 -6.491790
v 2.892070 3.718713 -6.491790
v -12.137365 7.406707 -6.491790
v 12.122210 7.406707 -6.491790
v -2.907226 8.958601 -6.491790
v 2.892070 8.958601 -6.491790
vn -1.0000 0.0000 0.0000
vn 0.0000 0.7678 -0.6407
vn 1.0000 0.0000 0.0000
vn 0.0000 0.7678 0.6407
vn 0.0000 -1.0000 0.0000
vn 0.0000 0.0000 1.0000
vn 0.0000 1.0000 0.0000
vn 0.0000 0.0000 -1.0000
s off
f 1//1 4//1 3//1
f 4//2 7//2 3//2
f 7//3 6//3 5//3
f 6//4 1//4 5//4
f 7//5 1//5 3//5
f 8//6 2//6 6//6
f 36//1 9//1 33//1
f 16//7 48//7 23//7
f 59//3 63//3 41//3
f 40//6 39//6 22//6
f 61//8 54//8 63//8
f 12//1 61//1 35//1
f 41//5 64//5 43//5
f 36//1 46//1 11//1
f 35//1 45//1 36//1
f 60//1 57//1 25//1
f 20//6 43//6 37//6
f 11//5 47//5 21//5
f 15//3 50//3 40//3
f 1//6 2//6 4//6
f 4//2 8//2 7//2
f 7//6 8//6 6//6
f 6//4 2//4 1//4
f 7//5 5//5 1//5
f 8//6 4//6 2//6
f 33//1 34//1 36//1
f 34//1 10//1 35//1
f 36//1 34//1 35//1
f 10//1 12//1 35//1
f 36//1 11//1 9//1
f 54//7 12//7 55//7
f 12//7 10//7 24//7
f 24//7 32//7 58//7
f 32//7 31//7 58//7
f 24//7 58//7 55//7
f 12//7 24//7 55//7
f 56//7 58//7 31//7
f 31//7 23//7 56//7
f 23//7 14//7 16//7
f 49//7 48//7 16//7
f 48//7 56//7 23//7
f 41//3 42//3 59//3
f 42//3 26//3 59//3
f 26//3 53//3 59//3
f 32//6 24//6 34//6
f 24//6 10//6 34//6
f 34//6 33//6 21//6
f 33//6 9//6 21//6
f 14//6 23//6 39//6
f 23//6 31//6 39//6
f 39//6 31//6 30//6
f 31//6 32//6 30//6
f 32//6 34//6 29//6
f 30//6 32//6 29//6
f 30//6 22//6 39//6
f 34//6 21//6 29//6
f 13//6 40//6 22//6
f 56//8 48//8 64//8
f 48//8 49//8 64//8
f 64//8 49//8 62//8
f 62//8 50//8 60//8
f 50//8 51//8 52//8
f 54//8 55//8 63//8
f 55//8 58//8 63//8
f 64//8 58//8 56//8
f 50//8 52//8 60//8
f 52//8 57//8 60//8
f 60//8 64//8 62//8
f 58//8 64//8 63//8
f 46//8 45//8 47//8
f 45//8 61//8 59//8
f 47//8 45//8 59//8
f 63//8 59//8 61//8
f 59//8 53//8 47//8
f 12//1 54//1 61//1
f 41//5 63//5 64//5
f 36//1 45//1 46//1
f 35//1 61//1 45//1
f 25//1 44//1 60//1
f 44//1 43//1 60//1
f 43//1 64//1 60//1
f 12//6 35//6 19//6
f 35//6 36//6 42//6
f 42//6 36//6 18//6
f 36//6 11//6 18//6
f 18//6 26//6 42//6
f 42//6 41//6 35//6
f 19//6 35//6 41//6
f 28//6 27//6 43//6
f 27//6 19//6 41//6
f 43//6 27//6 41//6
f 20//6 28//6 43//6
f 44//6 25//6 17//6
f 43//6 44//6 37//6
f 44//6 17//6 38//6
f 37//6 44//6 38//6
f 17//6 15//6 38//6
f 37//6 16//6 20//6
f 51//5 15//5 52//5
f 15//5 13//5 22//5
f 22//5 30//5 57//5
f 30//5 29//5 57//5
f 22//5 57//5 52//5
f 15//5 22//5 52//5
f 53//5 57//5 29//5
f 29//5 21//5 53//5
f 21//5 9//5 11//5
f 46//5 47//5 11//5
f 47//5 53//5 21//5
f 49//3 16//3 62//3
f 16//3 14//3 39//3
f 39//3 40//3 50//3
f 40//3 13//3 15//3
f 16//3 39//3 62//3
f 51//3 50//3 15//3
f 50//3 62//3 39//3
