# Blender v2.91.2 OBJ File: 'pvz_house_w_yard.blend'
# www.blender.org
o door_Cube.002
v -2.932140 0.034686 -4.693549
v -2.932140 8.928699 -4.693549
v -2.932140 0.034686 -5.853596
v -2.932140 8.928699 -5.853596
v 2.926145 0.034686 -4.693549
v 2.926145 8.928699 -4.693549
v 2.926145 0.034686 -5.853596
v 2.926145 8.928699 -5.853596
vn -1.0000 0.0000 0.0000
vn 0.0000 0.0000 -1.0000
vn 1.0000 0.0000 0.0000
vn 0.0000 0.0000 1.0000
vn 0.0000 -1.0000 0.0000
vn 0.0000 1.0000 0.0000
s off
f 2//1 3//1 1//1
f 4//2 7//2 3//2
f 8//3 5//3 7//3
f 6//4 1//4 5//4
f 7//5 1//5 3//5
f 4//6 6//6 8//6
f 2//1 4//1 3//1
f 4//2 8//2 7//2
f 8//3 6//3 5//3
f 6//4 2//4 1//4
f 7//5 5//5 1//5
f 4//6 2//6 6//6
