# Blender v2.91.2 OBJ File: 'pvz_house_w_yard.blend'
# www.blender.org
o window_glass_Cube.009
v 5.875170 5.799729 -6.438723
v 5.875170 8.434093 -6.438723
v 5.875170 5.799729 -7.115864
v 5.875170 8.434093 -7.115864
v 9.294761 5.799729 -6.438723
v 9.294761 8.434093 -6.438723
v 9.294761 5.799729 -7.115864
v 9.294761 8.434093 -7.115864
v -9.332110 5.799729 -6.438723
v -9.332110 8.434092 -6.438723
v -9.332110 5.799729 -7.115864
v -9.332110 8.434092 -7.115864
v -5.912519 5.799729 -6.438723
v -5.912519 8.434092 -6.438723
v -5.912519 5.799729 -7.115864
v -5.912519 8.434092 -7.115864
vn -1.0000 0.0000 0.0000
vn 0.0000 0.0000 -1.0000
vn 1.0000 0.0000 0.0000
vn 0.0000 0.0000 1.0000
vn 0.0000 -1.0000 0.0000
vn 0.0000 1.0000 0.0000
s off
f 2//1 3//1 1//1
f 4//2 7//2 3//2
f 8//3 5//3 7//3
f 6//4 1//4 5//4
f 7//5 1//5 3//5
f 4//6 6//6 8//6
f 10//1 11//1 9//1
f 12//2 15//2 11//2
f 16//3 13//3 15//3
f 14//4 9//4 13//4
f 15//5 9//5 11//5
f 12//6 14//6 16//6
f 2//1 4//1 3//1
f 4//2 8//2 7//2
f 8//3 6//3 5//3
f 6//4 2//4 1//4
f 7//5 5//5 1//5
f 4//6 2//6 6//6
f 10//1 12//1 11//1
f 12//2 16//2 15//2
f 16//3 14//3 13//3
f 14//4 10//4 9//4
f 15//5 13//5 9//5
f 12//6 10//6 14//6
