# Blender v2.91.2 OBJ File: 'pvz_house_w_yard.blend'
# www.blender.org
o window_frame_Cube.004
v -9.697957 8.948696 -6.096097
v -9.954079 8.777136 -6.045380
v -9.697957 8.948696 -6.918126
v -9.954079 8.777136 -6.968843
v -5.546672 8.948696 -6.096097
v -5.290550 8.777136 -6.045380
v -5.546672 8.948696 -6.918126
v -5.290550 8.777136 -6.968843
v -9.595467 5.356035 -6.116392
v -9.954079 5.596247 -6.045380
v -9.954079 5.596247 -6.968843
v -9.595467 5.356035 -6.897831
v -5.290550 5.596247 -6.045380
v -5.649163 5.356035 -6.116392
v -5.290550 5.596247 -6.968843
v -5.649163 5.356035 -6.897831
v 5.509323 8.948696 -6.096097
v 5.253201 8.777136 -6.045380
v 5.509323 8.948696 -6.918126
v 5.253201 8.777136 -6.968843
v 9.660608 8.948696 -6.096097
v 9.916729 8.777136 -6.045380
v 9.660608 8.948696 -6.918126
v 9.916729 8.777136 -6.968843
v 5.611814 5.356035 -6.116392
v 5.253201 5.596247 -6.045380
v 5.253201 5.596247 -6.968843
v 5.611814 5.356035 -6.897831
v 9.916729 5.596247 -6.045380
v 9.558117 5.356035 -6.116392
v 9.916729 5.596247 -6.968843
v 9.558117 5.356035 -6.897831
vn 0.0000 1.0000 0.0000
vn 0.0000 0.0000 -1.0000
vn 0.0000 0.0000 1.0000
vn 1.0000 0.0000 0.0000
vn -0.5565 0.8308 0.0000
vn 0.0000 0.2835 -0.9590
vn 0.5565 0.8308 0.0000
vn 0.0000 0.2835 0.9590
vn -1.0000 0.0000 0.0000
vn -0.5565 -0.8308 0.0000
vn 0.0000 -0.2835 -0.9590
vn 0.5565 -0.8308 0.0000
vn 0.0000 -0.2835 0.9590
vn 0.0000 -1.0000 0.0000
s off
f 3//1 5//1 7//1
f 4//2 15//2 11//2
f 6//3 10//3 13//3
f 8//4 13//4 15//4
f 3//5 2//5 1//5
f 7//6 4//6 3//6
f 5//7 8//7 7//7
f 1//8 6//8 5//8
f 2//9 11//9 10//9
f 9//10 11//10 12//10
f 12//11 15//11 16//11
f 16//12 13//12 14//12
f 14//13 10//13 9//13
f 16//14 9//14 12//14
f 19//1 21//1 23//1
f 20//2 31//2 27//2
f 22//3 26//3 29//3
f 24//4 29//4 31//4
f 19//5 18//5 17//5
f 23//6 20//6 19//6
f 21//7 24//7 23//7
f 17//8 22//8 21//8
f 18//9 27//9 26//9
f 25//10 27//10 28//10
f 28//11 31//11 32//11
f 32//12 29//12 30//12
f 30//13 26//13 25//13
f 32//14 25//14 28//14
f 3//1 1//1 5//1
f 4//2 8//2 15//2
f 6//3 2//3 10//3
f 8//4 6//4 13//4
f 3//5 4//5 2//5
f 7//6 8//6 4//6
f 5//7 6//7 8//7
f 1//8 2//8 6//8
f 2//9 4//9 11//9
f 9//10 10//10 11//10
f 12//11 11//11 15//11
f 16//12 15//12 13//12
f 14//13 13//13 10//13
f 16//14 14//14 9//14
f 19//1 17//1 21//1
f 20//2 24//2 31//2
f 22//3 18//3 26//3
f 24//4 22//4 29//4
f 19//5 20//5 18//5
f 23//6 24//6 20//6
f 21//7 22//7 24//7
f 17//8 18//8 22//8
f 18//9 20//9 27//9
f 25//10 26//10 27//10
f 28//11 27//11 31//11
f 32//12 31//12 29//12
f 30//13 29//13 26//13
f 32//14 30//14 25//14
