# Blender v2.91.2 OBJ File: 'pvz_house_w_yard.blend'
# www.blender.org
o dasar_rumput_hijau_terang_Cube.014
v 34.894207 -0.626534 15.323566
v 34.894207 -1.554281 15.323566
v 34.894207 -0.626534 -91.024361
v 34.894207 -1.554281 -91.024361
v -34.780273 -0.626544 15.323566
v -34.780273 -1.554292 15.323566
v -34.780273 -0.626544 -91.024361
v -34.780273 -1.554292 -91.024361
v -27.119764 -0.626543 -91.024361
v -27.119764 -0.626543 15.323566
v -13.183330 -0.626541 -91.024361
v -13.183330 -0.626541 15.323566
v 0.623431 -0.626539 -91.024361
v 0.623432 -0.626539 15.323566
v 14.690705 -0.626537 -91.024361
v 14.690706 -0.626537 15.323566
v 27.432659 -0.626535 -91.024361
v 27.432661 -0.626535 15.323566
v 34.894207 -0.626534 -10.299438
v -34.780273 -0.626544 -10.299438
v -34.780273 -0.626544 -18.371931
v -34.780273 -0.626544 -26.444422
v -34.780273 -0.626544 -34.516914
v -34.780273 -0.626544 -42.589405
v -34.780273 -0.626544 -50.661900
v -34.780273 -0.626544 -58.734390
v -34.780273 -0.626544 -66.806885
v -34.780273 -0.626544 -74.879379
v -34.780273 -0.626544 -82.951874
v 34.894207 -0.626534 -82.951874
v 34.894207 -0.626534 -74.879379
v 34.894207 -0.626534 -66.806885
v 34.894207 -0.626534 -58.734390
v 34.894207 -0.626534 -50.661900
v 34.894207 -0.626534 -42.589409
v 34.894207 -0.626534 -34.516914
v 34.894207 -0.626534 -26.444422
v 34.894207 -0.626534 -18.371931
v 34.894207 -2.879658 -82.951874
v 34.894207 -2.879658 -91.024361
v -27.119764 -2.879668 -91.024361
v -34.780273 -2.879669 -91.024361
v -34.780273 -2.879669 -10.299438
v -34.780273 -2.879669 15.323566
v 27.432659 -2.879660 15.323566
v 34.894207 -2.879658 15.323566
v -13.183330 -2.879666 -91.024361
v -27.119764 -2.879668 15.323566
v -13.183330 -2.879666 15.323566
v 0.623432 -2.879663 -91.024361
v 0.623431 -2.879663 15.323566
v 14.690706 -2.879662 -91.024361
v 14.690705 -2.879662 15.323566
v 27.432661 -2.879660 -91.024361
v 34.894207 -2.879658 -10.299438
v -34.780273 -2.879669 -18.371931
v 34.894207 -2.879658 -18.371931
v 34.894207 -2.879658 -26.444422
v 34.894207 -2.879658 -34.516914
v 34.894207 -2.879658 -42.589405
v 34.894207 -2.879658 -50.661900
v 34.894207 -2.879658 -58.734390
v 34.894207 -2.879658 -66.806885
v 34.894207 -2.879658 -74.879379
v -34.780273 -2.879669 -82.951874
v -34.780273 -2.879669 -74.879379
v -34.780273 -2.879669 -66.806885
v -34.780273 -2.879669 -58.734390
v -34.780273 -2.879669 -50.661900
v -34.780273 -2.879669 -42.589409
v -34.780273 -2.879669 -34.516914
v -34.780273 -2.879669 -26.444422
vn -0.0000 1.0000 0.0000
vn 0.0000 -1.0000 0.0000
vn -0.0000 0.0000 1.0000
vn -0.0000 0.0000 -1.0000
vn 1.0000 0.0000 0.0000
vn -1.0000 0.0000 0.0000
vn 1.0000 0.0001 0.0000
s off
f 31//1 17//1 15//1
f 41//2 47//2 66//2
f 6//3 44//3 48//3
f 4//4 40//4 54//4
f 4//5 36//5 2//5
f 65//6 66//6 8//6
f 12//1 14//1 21//1
f 14//1 16//1 38//1
f 18//1 1//1 19//1
f 10//1 12//1 20//1
f 14//1 38//1 37//1
f 16//1 18//1 19//1
f 37//1 36//1 22//1
f 12//1 21//1 20//1
f 16//1 19//1 38//1
f 20//1 5//1 10//1
f 14//1 37//1 22//1
f 21//1 14//1 22//1
f 36//1 35//1 23//1
f 35//1 34//1 24//1
f 24//1 23//1 35//1
f 23//1 22//1 36//1
f 33//1 32//1 15//1
f 32//1 31//1 15//1
f 13//1 34//1 33//1
f 24//1 34//1 25//1
f 27//1 26//1 11//1
f 26//1 25//1 13//1
f 13//1 33//1 15//1
f 25//1 34//1 13//1
f 30//1 3//1 17//1
f 31//1 30//1 17//1
f 11//1 26//1 13//1
f 7//1 29//1 9//1
f 29//1 28//1 9//1
f 9//1 28//1 11//1
f 28//1 27//1 11//1
f 57//2 55//2 53//2
f 55//2 46//2 45//2
f 45//2 53//2 55//2
f 53//2 51//2 57//2
f 57//2 51//2 58//2
f 60//2 59//2 71//2
f 59//2 58//2 71//2
f 71//2 58//2 72//2
f 51//2 49//2 56//2
f 49//2 48//2 43//2
f 72//2 58//2 51//2
f 62//2 61//2 50//2
f 61//2 60//2 70//2
f 48//2 44//2 43//2
f 64//2 63//2 52//2
f 63//2 62//2 52//2
f 50//2 61//2 69//2
f 60//2 71//2 70//2
f 72//2 51//2 56//2
f 43//2 56//2 49//2
f 61//2 70//2 69//2
f 54//2 40//2 39//2
f 39//2 64//2 54//2
f 54//2 64//2 52//2
f 69//2 68//2 50//2
f 68//2 67//2 47//2
f 47//2 50//2 68//2
f 50//2 52//2 62//2
f 66//2 65//2 41//2
f 65//2 42//2 41//2
f 67//2 66//2 47//2
f 46//3 2//3 45//3
f 2//3 1//3 18//3
f 18//3 16//3 2//3
f 16//3 14//3 2//3
f 2//3 14//3 6//3
f 45//3 2//3 53//3
f 51//3 53//3 2//3
f 51//3 2//3 6//3
f 14//3 12//3 6//3
f 12//3 10//3 6//3
f 48//3 49//3 6//3
f 49//3 51//3 6//3
f 10//3 5//3 6//3
f 42//4 8//4 41//4
f 8//4 7//4 9//4
f 9//4 11//4 8//4
f 11//4 13//4 8//4
f 8//4 13//4 4//4
f 41//4 8//4 47//4
f 50//4 47//4 8//4
f 50//4 8//4 4//4
f 13//4 15//4 4//4
f 15//4 17//4 4//4
f 54//4 52//4 4//4
f 52//4 50//4 4//4
f 17//4 3//4 4//4
f 61//5 62//5 4//5
f 62//5 63//5 4//5
f 64//5 39//5 4//5
f 39//5 40//5 4//5
f 60//5 61//5 4//5
f 59//5 60//5 4//5
f 63//5 64//5 4//5
f 4//5 3//5 30//5
f 31//5 32//5 4//5
f 32//5 33//5 4//5
f 4//5 30//5 31//5
f 55//5 57//5 2//5
f 57//5 58//5 2//5
f 2//5 58//5 59//5
f 59//5 4//5 2//5
f 34//5 35//5 4//5
f 35//5 36//5 4//5
f 4//5 33//5 34//5
f 2//5 46//5 55//5
f 19//5 1//5 2//5
f 36//5 37//5 2//5
f 37//7 38//7 2//7
f 38//5 19//5 2//5
f 44//6 6//6 43//6
f 6//6 5//6 20//6
f 20//6 21//6 6//6
f 21//6 22//6 6//6
f 6//6 22//6 23//6
f 43//6 6//6 56//6
f 72//6 56//6 6//6
f 72//6 6//6 71//6
f 23//6 24//6 8//6
f 23//6 8//6 6//6
f 70//6 71//6 8//6
f 24//6 25//6 8//6
f 25//6 26//6 8//6
f 71//6 6//6 8//6
f 68//6 69//6 8//6
f 69//6 70//6 8//6
f 26//6 27//6 8//6
f 27//6 28//6 8//6
f 66//6 67//6 8//6
f 67//6 68//6 8//6
f 28//6 29//6 8//6
f 29//6 7//6 8//6
f 42//6 65//6 8//6
