# Blender v2.91.2 OBJ File: 'pvz_house_w_yard.blend'
# www.blender.org
o Cube.002_Cube.008
v -34.471622 -3.148143 -126.752411
v -34.471622 -1.148143 -126.752411
v -34.471622 -3.148143 -91.125809
v -34.471622 -1.148143 -91.125809
v 34.471622 -3.148143 -126.752411
v 34.471622 -1.148143 -126.752411
v 34.471622 -3.148143 -91.125809
v 34.471622 -1.148143 -91.125809
v -34.471622 -3.148143 -93.647781
v -34.471622 -1.148143 -93.647781
v 34.471622 -3.148143 -93.647781
v 34.471622 -1.148143 -93.647781
v -34.471622 0.293553 -93.647781
v -34.471622 0.293553 -91.125809
v 34.471622 0.293553 -91.125809
v 34.471622 0.293553 -93.647781
vn -1.0000 0.0000 0.0000
vn 0.0000 0.0000 1.0000
vn 1.0000 0.0000 0.0000
vn 0.0000 0.0000 -1.0000
vn 0.0000 -1.0000 0.0000
vn 0.0000 1.0000 0.0000
s off
f 10//1 9//1 3//1
f 4//2 3//2 7//2
f 12//3 11//3 5//3
f 6//4 5//4 1//4
f 11//5 9//5 1//5
f 10//6 12//6 6//6
f 8//3 12//3 16//3
f 7//5 3//5 9//5
f 8//3 7//3 11//3
f 2//1 1//1 9//1
f 14//6 15//6 16//6
f 10//1 4//1 14//1
f 4//2 8//2 15//2
f 12//4 10//4 13//4
f 10//1 3//1 4//1
f 4//2 7//2 8//2
f 12//3 5//3 6//3
f 6//4 1//4 2//4
f 11//5 1//5 5//5
f 10//6 6//6 2//6
f 8//3 16//3 15//3
f 7//5 9//5 11//5
f 8//3 11//3 12//3
f 2//1 9//1 10//1
f 14//6 16//6 13//6
f 10//1 14//1 13//1
f 4//2 15//2 14//2
f 12//4 13//4 16//4
