# Blender v2.91.2 OBJ File: 'pvz_house_w_yard.blend'
# www.blender.org
o BezierCurve_BezierCurve.002
v 9.068899 6.833580 -27.168144
v 8.723938 6.678800 -26.651272
v 9.091692 6.506022 -26.684811
v 9.313673 6.486509 -27.285311
v 9.354753 6.186924 -26.876415
v 9.394942 6.067631 -27.483250
v 9.442638 5.807005 -27.174744
v 9.290930 5.689184 -27.708920
v 9.331796 5.468069 -27.499859
v 9.029508 5.452569 -27.901855
v 9.051927 5.260927 -27.764647
v 8.680721 5.421194 -28.010357
v 8.678020 5.241086 -27.898159
v 8.310267 5.413864 -27.864618
v 8.047205 5.732962 -27.673014
v 8.338028 5.603457 -28.005356
v 7.959321 6.112879 -27.374687
v 8.093254 5.950528 -27.888189
v 8.070163 6.451818 -27.049570
v 8.011985 6.369406 -27.690250
v 8.350032 6.658959 -26.784782
v 8.115996 6.747853 -27.464582
v 8.377419 6.984466 -27.271646
v 9.049813 6.980029 -27.679493
v 8.726206 7.015844 -27.163143
v 9.275614 6.627228 -27.708641
v 9.349377 6.198471 -27.788616
v 9.251336 5.808641 -27.897997
v 9.007764 5.562195 -28.007465
v 8.683924 5.525167 -28.087698
v 8.366588 5.707477 -28.117191
v 8.140786 6.060278 -28.088043
v 8.067021 6.489037 -28.008064
v 8.165061 6.878866 -27.898687
v 8.408634 7.125313 -27.789215
v 9.034011 6.940786 -28.181448
v 8.732476 7.162341 -27.708984
v 9.240316 6.613528 -28.125544
v 9.305897 6.215641 -28.091629
v 9.213179 5.853741 -28.088791
v 8.987007 5.624795 -28.117792
v 8.687984 5.590154 -28.170860
v 8.396235 5.759095 -28.233774
v 8.189930 6.086351 -28.289680
v 8.124350 6.484237 -28.323595
v 8.217067 6.846137 -28.326431
v 8.443237 7.075083 -28.297432
v 8.753955 6.895508 -28.713985
v 8.742260 7.109727 -28.244364
v 9.020149 6.749636 -28.627766
v 9.207034 6.470254 -28.510712
v 9.264536 6.132221 -28.394188
v 9.177249 5.826113 -28.309414
v 8.968558 5.633952 -28.279110
v 8.428191 5.753098 -28.397612
v 8.241304 6.032480 -28.514666
v 8.183803 6.370512 -28.631191
v 8.271091 6.676620 -28.715961
v 8.479782 6.868783 -28.746267
v 8.766312 6.580515 -29.103102
v 9.007176 6.459632 -29.006031
v 9.175184 6.232290 -28.856888
v 9.225319 5.959407 -28.695637
v 9.144147 5.714101 -28.565483
v 8.694384 5.607227 -28.311392
v 8.953418 5.562102 -28.501301
v 8.463374 5.665022 -28.617359
v 8.295366 5.892362 -28.766502
v 8.245232 6.165245 -28.927755
v 8.326403 6.410552 -29.057909
v 8.517131 6.562550 -29.122089
v 8.779103 6.205583 -29.428371
v 8.994897 6.107074 -29.329906
v 9.144637 5.925512 -29.170576
v 9.188198 5.709541 -28.993074
v 9.113909 5.517035 -28.844965
v 8.704238 5.544137 -28.520288
v 8.941674 5.399575 -28.765930
v 8.501850 5.487140 -28.875614
v 8.352112 5.668705 -29.034943
v 8.308550 5.884673 -29.212442
v 8.382840 6.077179 -29.360554
v 8.555073 6.194639 -29.439589
v 8.792590 5.790167 -29.709280
v 8.983523 5.710477 -29.615326
v 9.115476 5.566352 -29.459393
v 9.153090 5.396410 -29.283257
v 9.086288 5.246186 -29.134115
v 8.717646 5.388632 -28.777149
v 8.932970 5.155933 -29.051933
v 8.543282 5.229527 -29.152683
v 8.411330 5.373652 -29.308619
v 8.373714 5.543593 -29.484755
v 8.440516 5.693816 -29.633894
v 8.593835 5.784068 -29.716076
v 8.807061 5.345463 -29.958254
v 8.973283 5.281498 -29.872322
v 9.087795 5.167643 -29.727774
v 9.119911 5.034404 -29.563337
v 9.061028 4.917479 -29.423075
v 8.734216 5.149836 -29.058729
v 8.926924 4.848203 -29.344572
v 8.587309 4.909098 -29.434792
v 8.472798 5.022953 -29.579342
v 8.440682 5.156194 -29.743776
v 8.499563 5.273118 -29.884039
v 8.633668 5.342395 -29.962543
v 8.822714 4.881390 -30.181684
v 8.964331 4.830757 -30.105892
v 9.061644 4.741682 -29.977488
v 9.088578 4.638032 -29.830877
v 9.037919 4.547581 -29.705345
v 8.753531 4.845135 -29.348860
v 8.923239 4.494566 -29.634529
v 8.633651 4.543823 -29.713194
v 8.536338 4.632898 -29.841599
v 8.509402 4.736548 -29.988209
v 8.560062 4.826998 -30.113739
v 8.674742 4.880013 -30.184555
v 8.839655 4.408562 -30.382364
v 8.956741 4.369443 -30.318043
v 9.037035 4.301070 -30.208719
v 9.059017 4.221765 -30.083683
v 9.016801 4.152775 -29.976440
v 8.775267 4.493190 -29.637402
v 8.921696 4.112587 -29.915726
v 8.682099 4.151088 -29.982128
v 8.601807 4.219460 -30.091454
v 8.579823 4.298766 -30.216488
v 8.622040 4.367756 -30.323732
v 8.717145 4.407944 -30.384447
v 8.857931 3.938500 -30.561129
v 8.950551 3.909501 -30.509163
v 9.013957 3.858800 -30.420797
v 9.031158 3.799987 -30.319708
v 8.997549 3.748816 -30.232983
v 8.799188 4.111969 -29.917807
v 8.922132 3.719002 -30.183857
v 8.732494 3.747531 -30.237461
v 8.669088 3.798230 -30.325827
v 8.651886 3.857045 -30.426916
v 8.685495 3.908216 -30.513643
v 8.760913 3.938030 -30.562769
v 8.877568 3.483169 -30.717869
v 8.945770 3.463177 -30.678886
v 8.992393 3.427953 -30.612698
v 9.004943 3.386935 -30.537037
v 8.980057 3.351115 -30.472176
v 8.825114 3.718531 -30.185497
v 8.924403 3.330090 -30.435497
v 8.784691 3.349486 -30.475809
v 8.738069 3.384710 -30.541998
v 8.725518 3.425728 -30.617659
v 8.750404 3.461548 -30.682518
v 8.806058 3.482573 -30.719198
v 8.852895 3.329494 -30.436827
vn 0.4058 0.7649 0.5003
vn 0.4111 0.7609 0.5020
vn 0.4052 0.7656 0.4997
vn 0.8166 0.5017 0.2855
vn 0.9780 0.2074 0.0240
vn 0.9636 -0.0667 -0.2589
vn 0.7647 -0.3136 -0.5629
vn 0.3138 -0.5054 -0.8038
vn -0.3085 -0.4996 -0.8094
vn -0.7727 -0.3015 -0.5586
vn -0.9696 -0.0342 -0.2421
vn -0.9631 0.2636 0.0536
vn -0.7436 0.5804 0.3319
vn -0.2330 0.8144 0.5314
vn 0.4605 0.8574 0.2298
vn 0.4671 0.8529 0.2331
vn 0.4597 0.8581 0.2286
vn 0.8292 0.5484 0.1078
vn 0.9752 0.2145 -0.0536
vn 0.9581 -0.1044 -0.2666
vn 0.7465 -0.3788 -0.5469
vn 0.7466 -0.3790 -0.5468
vn 0.7466 -0.3789 -0.5469
vn 0.2895 -0.5770 -0.7637
vn -0.3097 -0.5613 -0.7674
vn -0.7664 -0.3613 -0.5311
vn -0.7663 -0.3610 -0.5315
vn -0.7667 -0.3618 -0.5303
vn -0.9627 -0.0624 -0.2632
vn -0.9541 0.2946 -0.0543
vn -0.7154 0.6872 0.1265
vn -0.1705 0.9523 0.2530
vn -0.1646 0.9541 0.2503
vn -0.1636 0.9544 0.2499
vn 0.5032 0.8603 -0.0814
vn 0.5108 0.8563 -0.0765
vn 0.5022 0.8607 -0.0831
vn 0.8356 0.5421 -0.0886
vn 0.9730 0.1914 -0.1288
vn 0.9566 -0.1753 -0.2328
vn 0.9572 -0.1764 -0.2293
vn 0.9584 -0.1784 -0.2227
vn 0.7293 -0.5270 -0.4363
vn 0.2347 -0.7715 -0.5914
vn -0.3626 -0.7257 -0.5848
vn -0.7843 -0.4684 -0.4068
vn -0.9610 -0.1188 -0.2496
vn -0.9420 0.2861 -0.1755
vn -0.6733 0.7265 -0.1374
vn -0.0958 0.9904 -0.0997
vn -0.0888 0.9907 -0.1032
vn -0.0875 0.9907 -0.1039
vn 0.5337 0.7717 -0.3460
vn 0.5257 0.7785 -0.3430
vn 0.5250 0.7792 -0.3424
vn 0.8398 0.4892 -0.2356
vn 0.9788 0.1494 -0.1401
vn 0.9666 -0.2481 -0.0637
vn 0.7129 -0.7007 -0.0284
vn 0.1272 -0.9894 -0.0707
vn -0.4898 -0.8695 -0.0637
vn -0.8394 -0.5398 -0.0624
vn -0.9771 -0.1717 -0.1254
vn -0.9421 0.2395 -0.2349
vn -0.6393 0.6776 -0.3635
vn -0.0326 0.9086 -0.4163
vn -0.0377 0.9072 -0.4191
vn -0.0316 0.9091 -0.4155
vn 0.5404 0.6591 -0.5230
vn 0.5343 0.6648 -0.5220
vn 0.5337 0.6655 -0.5218
vn 0.8401 0.4162 -0.3479
vn 0.9801 0.1098 -0.1653
vn 0.9801 0.1097 -0.1655
vn 0.9802 0.1100 -0.1646
vn 0.9633 -0.2670 0.0277
vn 0.6779 -0.7017 0.2193
vn 0.0570 -0.9511 0.3037
vn -0.5255 -0.8155 0.2427
vn -0.8467 -0.5210 0.1081
vn -0.9791 -0.1909 -0.0707
vn -0.9371 0.1853 -0.2958
vn -0.6131 0.5815 -0.5348
vn -0.0024 0.7768 -0.6297
vn -0.0067 0.7752 -0.6317
vn -0.0017 0.7772 -0.6292
vn 0.5409 0.5591 -0.6284
vn 0.5368 0.5630 -0.6284
vn 0.5361 0.5635 -0.6285
vn 0.8406 0.3502 -0.4131
vn 0.9819 0.0784 -0.1726
vn 0.9819 0.0785 -0.1724
vn 0.9819 0.0785 -0.1725
vn 0.9593 -0.2635 0.1016
vn 0.6506 -0.6520 0.3893
vn 0.0163 -0.8546 0.5190
vn 0.0212 -0.8525 0.5223
vn 0.0216 -0.8523 0.5225
vn -0.5368 -0.7301 0.4228
vn -0.5286 -0.7378 0.4198
vn -0.5368 -0.7301 0.4229
vn -0.8481 -0.4813 0.2217
vn -0.9804 -0.1953 -0.0256
vn -0.9356 0.1370 -0.3253
vn -0.6008 0.4859 -0.6348
vn 0.0096 0.6553 -0.7553
vn 0.0066 0.6540 -0.7564
vn 0.0103 0.6555 -0.7551
vn 0.5398 0.4817 -0.6904
vn 0.5370 0.4841 -0.6908
vn 0.5365 0.4846 -0.6909
vn 0.8453 0.2921 -0.4474
vn 0.8421 0.2985 -0.4491
vn 0.8415 0.2994 -0.4496
vn 0.9836 0.0577 -0.1712
vn 0.9836 0.0577 -0.1711
vn 0.9558 -0.2502 0.1543
vn 0.6330 -0.5943 0.4962
vn 0.0018 -0.7624 0.6471
vn 0.0043 -0.7615 0.6482
vn 0.0047 -0.7613 0.6484
vn -0.5397 -0.6555 0.5283
vn -0.5355 -0.6591 0.5280
vn -0.5401 -0.6551 0.5283
vn -0.8474 -0.4428 0.2931
vn -0.8426 -0.4510 0.2943
vn -0.8478 -0.4420 0.2931
vn -0.9813 -0.1926 0.0065
vn -0.9356 0.1006 -0.3385
vn -0.5973 0.4078 -0.6906
vn -0.6032 0.4014 -0.6892
vn -0.5960 0.4090 -0.6910
vn 0.0136 0.5603 -0.8282
vn 0.0117 0.5595 -0.8287
vn 0.0141 0.5604 -0.8281
vn 0.5387 0.4236 -0.7282
vn 0.5368 0.4252 -0.7287
vn 0.5363 0.4255 -0.7289
vn 0.8450 0.2573 -0.4687
vn 0.8430 0.2610 -0.4703
vn 0.8425 0.2619 -0.4708
vn 0.9856 0.0390 -0.1648
vn 0.9852 0.0416 -0.1661
vn 0.9849 0.0445 -0.1674
vn 0.9505 -0.2426 0.1940
vn 0.9526 -0.2363 0.1914
vn 0.9532 -0.2348 0.1905
vn 0.6162 -0.5486 0.5651
vn 0.6209 -0.5443 0.5641
vn 0.6220 -0.5434 0.5637
vn -0.0054 -0.6897 0.7241
vn -0.0040 -0.6892 0.7245
vn -0.0036 -0.6891 0.7247
vn -0.5403 -0.5968 0.5932
vn -0.5379 -0.5987 0.5934
vn -0.5408 -0.5965 0.5931
vn -0.8466 -0.4105 0.3387
vn -0.8440 -0.4147 0.3401
vn -0.8472 -0.4096 0.3383
vn -0.9814 -0.1897 0.0288
vn -0.9803 -0.1950 0.0312
vn -0.9817 -0.1884 0.0279
vn -0.9363 0.0723 -0.3437
vn -0.9377 0.0667 -0.3409
vn -0.9357 0.0737 -0.3449
vn -0.5954 0.3495 -0.7234
vn -0.5993 0.3457 -0.7220
vn -0.5943 0.3504 -0.7239
vn 0.0145 0.4887 -0.8723
vn 0.0134 0.4882 -0.8726
vn 0.0148 0.4888 -0.8723
vn 0.5379 0.3795 -0.7528
vn 0.5365 0.3806 -0.7532
vn 0.5360 0.3808 -0.7534
vn 0.8452 0.2310 -0.4819
vn 0.8439 0.2333 -0.4832
vn 0.8433 0.2340 -0.4838
vn 0.9864 0.0321 -0.1614
vn 0.9862 0.0335 -0.1624
vn 0.9494 -0.2255 0.2185
vn 0.9508 -0.2218 0.2164
vn 0.9513 -0.2206 0.2154
vn 0.6113 -0.5053 0.6091
vn 0.6143 -0.5029 0.6081
vn 0.6152 -0.5022 0.6078
vn -0.0090 -0.6342 0.7731
vn -0.0082 -0.6340 0.7733
vn -0.0079 -0.6340 0.7733
vn -0.5401 -0.5526 0.6348
vn -0.5386 -0.5537 0.6351
vn -0.5406 -0.5523 0.6346
vn -0.8461 -0.3857 0.3680
vn -0.8445 -0.3881 0.3692
vn -0.8466 -0.3850 0.3675
vn -0.9814 -0.1873 0.0428
vn -0.9809 -0.1892 0.0445
vn -0.9818 -0.1851 0.0418
vn -0.9362 0.0516 -0.3477
vn -0.9371 0.0483 -0.3456
vn -0.9357 0.0527 -0.3488
vn -0.5944 0.3043 -0.7444
vn -0.5971 0.3020 -0.7432
vn -0.5935 0.3049 -0.7448
vn 0.0144 0.4341 -0.9007
vn 0.0138 0.4339 -0.9009
vn 0.0146 0.4342 -0.9007
vn 0.5374 0.3451 -0.7695
vn 0.5364 0.3458 -0.7699
vn 0.5359 0.3461 -0.7701
vn 0.8456 0.2105 -0.4906
vn 0.8446 0.2119 -0.4916
vn 0.8441 0.2125 -0.4923
vn 0.9870 0.0270 -0.1587
vn 0.9868 0.0278 -0.1594
vn 0.9485 -0.2120 0.2353
vn 0.9494 -0.2097 0.2337
vn 0.9498 -0.2088 0.2328
vn 0.6081 -0.4721 0.6382
vn 0.6101 -0.4706 0.6374
vn 0.6108 -0.4701 0.6371
vn -0.0102 -0.5928 0.8053
vn -0.0106 -0.5929 0.8052
vn -0.0101 -0.5928 0.8053
vn -0.5396 -0.5201 0.6620
vn -0.5385 -0.5209 0.6623
vn -0.5401 -0.5199 0.6619
vn -0.8455 -0.3679 0.3869
vn -0.8444 -0.3695 0.3878
vn -0.8460 -0.3674 0.3863
vn -0.9813 -0.1853 0.0515
vn -0.9812 -0.1860 0.0524
vn -0.9356 0.0340 -0.3514
vn -0.9363 0.0320 -0.3497
vn -0.9352 0.0349 -0.3523
vn -0.5935 0.2678 -0.7590
vn -0.5954 0.2664 -0.7580
vn -0.5929 0.2683 -0.7593
vn 0.0142 0.3911 -0.9202
vn 0.0137 0.3909 -0.9203
vn 0.5372 0.3176 -0.7814
vn 0.5363 0.3181 -0.7818
vn 0.5359 0.3182 -0.7820
vn 0.8448 0.1956 -0.4981
vn 0.9874 0.0229 -0.1565
vn 0.9873 0.0232 -0.1572
vn 0.9478 -0.2018 0.2469
vn 0.9482 -0.2012 0.2458
vn 0.9487 -0.1998 0.2450
vn 0.6060 -0.4473 0.6578
vn 0.6073 -0.4464 0.6572
vn 0.6079 -0.4461 0.6569
vn -0.0112 -0.5630 0.8264
vn -0.5389 -0.4975 0.6797
vn -0.5381 -0.4981 0.6800
vn -0.5394 -0.4973 0.6795
vn -0.8447 -0.3574 0.3984
vn -0.8442 -0.3578 0.3992
vn -0.8454 -0.3564 0.3979
vn -0.9808 -0.1869 0.0553
vn -0.9807 -0.1875 0.0560
vn -0.9346 0.0176 -0.3554
vn -0.9351 0.0163 -0.3541
vn -0.9343 0.0181 -0.3561
vn -0.5925 0.2369 -0.7700
vn -0.5936 0.2361 -0.7693
vn -0.5920 0.2372 -0.7703
vn 0.0141 0.3559 -0.9344
vn 0.5362 0.2953 -0.7908
vn 0.8459 0.1815 -0.5015
vn 0.8454 0.1819 -0.5022
vn 0.8460 0.1941 -0.4966
vn 0.9875 0.0202 -0.1562
vn 0.9875 0.0202 -0.1563
vn 0.9481 -0.1932 0.2526
vn 0.9479 -0.1934 0.2532
vn 0.6059 -0.4294 0.6697
vn -0.0116 -0.5432 0.8395
vn -0.5382 -0.4839 0.6901
vn -0.5373 -0.4844 0.6904
vn -0.5385 -0.4837 0.6899
vn -0.8440 -0.3523 0.4044
vn -0.8436 -0.3526 0.4050
vn -0.9797 -0.1922 0.0560
vn -0.9796 -0.1928 0.0570
vn -0.9329 0.0005 -0.3603
vn -0.9332 -0.0004 -0.3593
vn -0.9326 0.0009 -0.3609
vn -0.5908 0.2090 -0.7793
vn -0.5915 0.2085 -0.7789
vn -0.5904 0.2092 -0.7795
vn 0.0143 0.3260 -0.9453
vn 0.0148 0.3261 -0.9452
vn 0.0144 0.3260 -0.9453
vn 0.4117 0.7603 0.5024
vn 0.8255 0.4845 0.2894
vn 0.9838 0.1765 0.0305
vn 0.9618 -0.1168 -0.2474
vn 0.2947 -0.5333 -0.7930
vn -0.2988 -0.5402 -0.7867
vn -0.7669 -0.3619 -0.5300
vn -0.9704 -0.0807 -0.2276
vn -0.9709 0.2321 0.0583
vn -0.7560 0.5630 0.3339
vn -0.2389 0.8115 0.5333
vn 0.4679 0.8522 0.2341
vn 0.8407 0.5281 0.1199
vn 0.9841 0.1750 -0.0303
vn 0.9589 -0.1794 -0.2200
vn 0.7231 -0.5055 -0.4708
vn 0.2525 -0.6449 -0.7214
vn -0.3121 -0.6546 -0.6886
vn -0.7738 -0.4592 -0.4362
vn -0.9683 -0.1264 -0.2153
vn -0.9670 0.2525 -0.0331
vn -0.7343 0.6650 0.1367
vn -0.1717 0.9520 0.2535
vn 0.5117 0.8559 -0.0748
vn 0.8492 0.5238 -0.0677
vn 0.9840 0.1547 -0.0884
vn 0.9573 -0.2464 -0.1513
vn 0.6983 -0.6526 -0.2939
vn 0.1879 -0.8387 -0.5112
vn -0.3715 -0.8103 -0.4532
vn -0.7948 -0.5462 -0.2643
vn -0.9693 -0.1745 -0.1734
vn -0.9600 0.2449 -0.1355
vn -0.6990 0.7054 -0.1173
vn -0.0971 0.9903 -0.0991
vn 0.5346 0.7707 -0.3467
vn 0.8501 0.4653 -0.2466
vn 0.9802 0.1101 -0.1644
vn 0.9462 -0.3020 -0.1163
vn 0.6633 -0.7390 -0.1178
vn 0.1098 -0.9873 -0.1150
vn -0.4444 -0.8866 -0.1280
vn -0.7969 -0.5891 -0.1339
vn -0.9610 -0.2209 -0.1665
vn -0.9459 0.1988 -0.2563
vn -0.6567 0.6539 -0.3757
vn -0.0389 0.9067 -0.4199
vn 0.5412 0.6583 -0.5232
vn 0.8483 0.3968 -0.3508
vn 0.9819 0.0784 -0.1727
vn 0.9512 -0.3084 0.0119
vn 0.6504 -0.7346 0.1932
vn 0.0467 -0.9556 0.2908
vn -0.5084 -0.8307 0.2269
vn -0.8281 -0.5534 0.0892
vn -0.9705 -0.2268 -0.0821
vn -0.9416 0.1522 -0.3004
vn -0.6285 0.5613 -0.5384
vn -0.0077 0.7748 -0.6321
vn 0.5416 0.5584 -0.6284
vn 0.8467 0.3368 -0.4119
vn 0.9835 0.0577 -0.1712
vn 0.9518 -0.2895 0.1011
vn 0.6340 -0.6712 0.3841
vn 0.0158 -0.8550 0.5184
vn -0.5283 -0.7382 0.4194
vn -0.8383 -0.4992 0.2190
vn -0.9758 -0.2174 -0.0251
vn -0.9397 0.1148 -0.3221
vn -0.6127 0.4718 -0.6340
vn 0.0059 0.6537 -0.7568
vn 0.5405 0.4812 -0.6902
vn 0.8459 0.2908 -0.4470
vn 0.9849 0.0446 -0.1673
vn 0.9510 -0.2658 0.1582
vn 0.6224 -0.6051 0.4965
vn 0.0013 -0.7626 0.6468
vn -0.5351 -0.6596 0.5279
vn -0.8419 -0.4522 0.2945
vn -0.9785 -0.2059 0.0103
vn -0.9389 0.0867 -0.3332
vn -0.6047 0.4001 -0.6887
vn 0.0112 0.5593 -0.8289
vn 0.5393 0.4233 -0.7280
vn 0.8457 0.2563 -0.4680
vn 0.9499 -0.2444 0.1950
vn 0.6149 -0.5497 0.5654
vn -0.0057 -0.6898 0.7240
vn -0.5374 -0.5992 0.5935
vn -0.8433 -0.4157 0.3406
vn -0.9800 -0.1966 0.0321
vn -0.9383 0.0650 -0.3397
vn -0.6005 0.3447 -0.7215
vn 0.0129 0.4881 -0.8727
vn 0.5384 0.3793 -0.7525
vn 0.8458 0.2302 -0.4813
vn 0.9489 -0.2268 0.2195
vn 0.6103 -0.5061 0.6095
vn -0.0091 -0.6343 0.7730
vn -0.5381 -0.5540 0.6352
vn -0.8438 -0.3889 0.3698
vn -0.9376 0.0471 -0.3445
vn -0.5979 0.3013 -0.7427
vn 0.0135 0.4338 -0.9009
vn 0.5378 0.3449 -0.7693
vn 0.8460 0.2099 -0.4901
vn 0.9481 -0.2129 0.2362
vn 0.6074 -0.4726 0.6386
vn -0.0107 -0.5929 0.8052
vn -0.5381 -0.5211 0.6625
vn -0.8439 -0.3700 0.3884
vn -0.9367 0.0312 -0.3487
vn -0.5960 0.2660 -0.7576
vn 0.5377 0.3174 -0.7812
vn 0.8463 0.1937 -0.4961
vn 0.6056 -0.4476 0.6580
vn -0.5376 -0.4982 0.6802
vn -0.9354 0.0157 -0.3532
vn -0.5942 0.2358 -0.7690
vn 0.5378 0.2946 -0.7899
vn 0.8468 0.1805 -0.5004
vn 0.9879 0.0183 -0.1539
vn 0.9469 -0.1953 0.2555
vn 0.6044 -0.4303 0.6705
vn -0.0111 -0.5432 0.8396
vn -0.5368 -0.4845 0.6907
vn -0.8429 -0.3535 0.4057
vn -0.9794 -0.1935 0.0576
vn -0.9335 -0.0008 -0.3586
vn -0.5919 0.2084 -0.7786
s 1
f 1//1 2//2 3//3
f 4//4 3//4 5//4
f 6//5 5//5 7//5
f 8//6 7//6 9//6
f 10//7 9//7 11//7
f 12//8 11//8 13//8
f 14//9 12//9 13//9
f 15//10 16//10 14//10
f 17//11 18//11 15//11
f 19//12 20//12 17//12
f 21//13 22//13 19//13
f 2//14 23//14 21//14
f 24//15 25//16 1//17
f 26//18 1//18 4//18
f 27//19 4//19 6//19
f 28//20 6//20 8//20
f 29//21 8//22 10//23
f 30//24 10//24 12//24
f 16//25 30//25 12//25
f 18//26 31//27 16//28
f 20//29 32//29 18//29
f 22//30 33//30 20//30
f 23//31 34//31 22//31
f 25//32 35//33 23//34
f 36//35 37//36 24//37
f 38//38 24//38 26//38
f 39//39 26//39 27//39
f 40//40 27//41 28//42
f 41//43 28//43 29//43
f 42//44 29//44 30//44
f 31//45 42//45 30//45
f 32//46 43//46 31//46
f 33//47 44//47 32//47
f 34//48 45//48 33//48
f 35//49 46//49 34//49
f 37//50 47//51 35//52
f 36//53 48//54 49//55
f 38//56 50//56 36//56
f 39//57 51//57 38//57
f 40//58 52//58 39//58
f 41//59 53//59 40//59
f 42//60 54//60 41//60
f 55//61 42//61 43//61
f 56//62 43//62 44//62
f 57//63 44//63 45//63
f 58//64 45//64 46//64
f 59//65 46//65 47//65
f 48//66 47//67 49//68
f 50//69 60//70 48//71
f 51//72 61//72 50//72
f 52//73 62//74 51//75
f 53//76 63//76 52//76
f 54//77 64//77 53//77
f 65//78 66//78 54//78
f 67//79 65//79 55//79
f 68//80 55//80 56//80
f 69//81 56//81 57//81
f 70//82 57//82 58//82
f 71//83 58//83 59//83
f 60//84 59//85 48//86
f 61//87 72//88 60//89
f 62//90 73//90 61//90
f 63//91 74//92 62//93
f 64//94 75//94 63//94
f 66//95 76//95 64//95
f 77//96 78//97 66//98
f 79//99 77//100 67//101
f 80//102 67//102 68//102
f 81//103 68//103 69//103
f 82//104 69//104 70//104
f 83//105 70//105 71//105
f 72//106 71//107 60//108
f 73//109 84//110 72//111
f 74//112 85//113 73//114
f 75//115 86//116 74//115
f 76//117 87//117 75//117
f 78//118 88//118 76//118
f 89//119 90//120 78//121
f 91//122 89//123 79//124
f 92//125 79//126 80//127
f 93//128 80//128 81//128
f 94//129 81//129 82//129
f 95//130 82//131 83//132
f 84//133 83//134 72//135
f 85//136 96//137 84//138
f 86//139 97//140 85//141
f 87//142 98//143 86//144
f 88//145 99//146 87//147
f 90//148 100//149 88//150
f 101//151 102//152 90//153
f 103//154 101//155 91//156
f 104//157 91//158 92//159
f 105//160 92//161 93//162
f 106//163 93//164 94//165
f 107//166 94//167 95//168
f 96//169 95//170 84//171
f 97//172 108//173 96//174
f 98//175 109//176 97//177
f 99//178 110//179 98//143
f 100//180 111//181 99//182
f 102//183 112//184 100//185
f 113//186 114//187 102//188
f 115//189 113//190 103//191
f 116//192 103//193 104//194
f 117//195 104//196 105//197
f 118//198 105//199 106//200
f 119//201 106//202 107//203
f 108//204 107//205 96//206
f 109//207 120//208 108//209
f 110//210 121//211 109//212
f 111//213 122//214 110//179
f 112//215 123//216 111//217
f 114//218 124//219 112//220
f 125//221 126//222 114//223
f 127//224 125//225 115//226
f 128//227 115//228 116//229
f 129//230 116//231 117//195
f 130//232 117//233 118//234
f 131//235 118//236 119//237
f 120//238 119//239 108//238
f 121//240 132//241 120//242
f 122//243 133//243 121//243
f 123//244 134//245 122//214
f 124//246 135//247 123//248
f 126//249 136//250 124//251
f 137//252 138//252 126//252
f 139//253 137//254 127//255
f 140//256 127//257 128//258
f 141//259 128//260 129//230
f 142//261 129//262 130//263
f 143//264 130//265 131//266
f 132//267 131//267 120//267
f 133//268 144//268 132//268
f 134//269 145//270 133//271
f 135//272 146//273 134//245
f 136//274 147//275 135//247
f 138//276 148//276 136//276
f 149//277 150//277 138//277
f 151//278 149//279 139//280
f 152//281 139//282 140//256
f 153//283 140//284 141//259
f 154//285 141//286 142//287
f 155//288 142//289 143//290
f 144//291 143//292 132//293
f 1//1 25//294 2//2
f 4//295 1//295 3//295
f 6//296 4//296 5//296
f 8//297 6//297 7//297
f 10//23 8//22 9//22
f 12//298 10//298 11//298
f 14//299 16//299 12//299
f 15//300 18//26 16//28
f 17//301 20//301 18//301
f 19//302 22//302 20//302
f 21//303 23//303 22//303
f 2//304 25//304 23//304
f 24//15 37//305 25//16
f 26//306 24//306 1//306
f 27//307 26//307 4//307
f 28//42 27//41 6//308
f 29//309 28//309 8//309
f 30//310 29//310 10//310
f 16//311 31//311 30//311
f 18//312 32//312 31//312
f 20//313 33//313 32//313
f 22//314 34//314 33//314
f 23//315 35//315 34//315
f 25//32 37//316 35//33
f 36//35 49//317 37//36
f 38//318 36//318 24//318
f 39//319 38//319 26//319
f 40//320 39//320 27//320
f 41//321 40//321 28//321
f 42//322 41//322 29//322
f 31//323 43//323 42//323
f 32//324 44//324 43//324
f 33//325 45//325 44//325
f 34//326 46//326 45//326
f 35//327 47//327 46//327
f 37//50 49//328 47//51
f 36//53 50//329 48//54
f 38//330 51//330 50//330
f 39//331 52//73 51//75
f 40//332 53//332 52//332
f 41//333 54//333 53//333
f 42//334 65//334 54//334
f 55//335 65//335 42//335
f 56//336 55//336 43//336
f 57//337 56//337 44//337
f 58//338 57//338 45//338
f 59//339 58//339 46//339
f 48//66 59//340 47//67
f 50//69 61//341 60//70
f 51//342 62//342 61//342
f 52//343 63//91 62//93
f 53//344 64//344 63//344
f 54//345 66//345 64//345
f 65//346 77//346 66//346
f 67//347 77//347 65//347
f 68//348 67//348 55//348
f 69//349 68//349 56//349
f 70//350 69//350 57//350
f 71//351 70//351 58//351
f 60//84 71//352 59//85
f 61//87 73//353 72//88
f 62//354 74//354 73//354
f 63//355 75//115 74//115
f 64//356 76//356 75//356
f 66//357 78//357 76//357
f 77//96 89//358 78//97
f 79//99 89//359 77//100
f 80//360 79//360 67//360
f 81//361 80//361 68//361
f 82//362 81//362 69//362
f 83//363 82//363 70//363
f 72//106 83//364 71//107
f 73//109 85//365 84//110
f 74//112 86//366 85//113
f 75//367 87//142 86//144
f 76//368 88//368 87//368
f 78//369 90//369 88//369
f 89//119 101//370 90//120
f 91//122 101//371 89//123
f 92//125 91//372 79//126
f 93//373 92//373 80//373
f 94//374 93//374 81//374
f 95//130 94//375 82//131
f 84//133 95//376 83//134
f 85//136 97//377 96//137
f 86//139 98//378 97//140
f 87//142 99//178 98//143
f 88//145 100//379 99//146
f 90//148 102//380 100//149
f 101//151 113//381 102//152
f 103//154 113//382 101//155
f 104//157 103//383 91//158
f 105//160 104//384 92//161
f 106//163 105//385 93//164
f 107//166 106//386 94//167
f 96//169 107//387 95//170
f 97//172 109//388 108//173
f 98//175 110//389 109//176
f 99//178 111//213 110//179
f 100//180 112//390 111//181
f 102//183 114//391 112//184
f 113//186 125//392 114//187
f 115//189 125//393 113//190
f 116//192 115//394 103//193
f 117//195 116//231 104//196
f 118//198 117//395 105//199
f 119//201 118//396 106//202
f 108//204 119//397 107//205
f 109//207 121//398 120//208
f 110//210 122//399 121//211
f 111//213 123//244 122//214
f 112//215 124//400 123//216
f 114//218 126//401 124//219
f 125//221 137//402 126//222
f 127//224 137//403 125//225
f 128//227 127//404 115//228
f 129//230 128//260 116//231
f 130//232 129//405 117//233
f 131//235 130//406 118//236
f 120//238 131//239 119//239
f 121//240 133//407 132//241
f 122//408 134//269 133//271
f 123//244 135//272 134//245
f 124//246 136//274 135//247
f 126//249 138//409 136//250
f 137//252 149//252 138//252
f 139//253 149//410 137//254
f 140//256 139//282 127//257
f 141//259 140//284 128//260
f 142//261 141//411 129//262
f 143//264 142//412 130//265
f 132//267 143//267 131//267
f 133//413 145//413 144//413
f 134//414 146//414 145//414
f 135//415 147//415 146//415
f 136//416 148//416 147//416
f 138//417 150//417 148//417
f 149//418 156//418 150//418
f 151//278 156//419 149//279
f 152//281 151//420 139//282
f 153//283 152//421 140//284
f 154//285 153//422 141//286
f 155//288 154//423 142//289
f 144//291 155//292 143//292
