# Blender v2.91.2 OBJ File: 'pvz_house_w_yard.blend'
# www.blender.org
o Cube_Cube.001
v 97.070755 13.047585 -92.403099
v 96.623077 12.916600 -92.861000
v 96.587563 13.441235 -92.976357
v 97.035240 13.572220 -92.518448
v 96.697395 12.367769 -95.379967
v 97.109985 12.310600 -95.766983
v 97.074471 12.835236 -95.882339
v 96.661888 12.892404 -95.495323
v 99.608444 12.487453 -95.731796
v 100.127968 12.639458 -95.200409
v 100.092453 13.164092 -95.315765
v 99.572937 13.012088 -95.847153
v 100.056763 13.165260 -92.787132
v 99.609238 13.227270 -92.367348
v 99.573723 13.751904 -92.482704
v 100.021248 13.689895 -92.902489
v 98.312561 12.837876 -93.010941
v 98.086525 16.305847 -94.391304
v 98.111824 12.819397 -93.033188
v 98.002922 16.298151 -94.400566
v 97.919952 12.793168 -93.093414
v 97.923012 16.287226 -94.425652
v 97.744316 12.760197 -93.189293
v 97.849861 16.273495 -94.465584
v 97.591652 12.721750 -93.317154
v 97.786278 16.257483 -94.518837
v 97.467850 12.679306 -93.472076
v 97.734718 16.239805 -94.583359
v 97.377647 12.634496 -93.648109
v 97.697151 16.221142 -94.656670
v 97.324524 12.589042 -93.838478
v 97.675026 16.202211 -94.735954
v 97.310509 12.544689 -94.035881
v 97.669189 16.183741 -94.818169
v 97.336151 12.503143 -94.232727
v 97.679871 16.166437 -94.900154
v 97.400467 12.466002 -94.421440
v 97.706657 16.150969 -94.978752
v 97.500977 12.434690 -94.594788
v 97.748512 16.137928 -95.050941
v 97.633820 12.410414 -94.746094
v 97.803841 16.127817 -95.113960
v 97.793892 12.394104 -94.869553
v 97.870506 16.121025 -95.165375
v 97.975044 12.386388 -94.960411
v 97.945953 16.117811 -95.203217
v 98.170311 12.387562 -95.015182
v 98.027275 16.118299 -95.226028
v 98.372185 12.397581 -95.031761
v 98.111359 16.122473 -95.232933
v 98.572922 12.416060 -95.009514
v 98.194954 16.130169 -95.223671
v 98.764793 12.442289 -94.949287
v 98.274872 16.141092 -95.198586
v 98.940437 12.475261 -94.853401
v 98.348022 16.154825 -95.158653
v 99.093094 12.513707 -94.725540
v 98.411598 16.170837 -95.105400
v 99.216896 12.556151 -94.570618
v 98.463165 16.188515 -95.040878
v 99.307098 12.600962 -94.394592
v 98.500725 16.207176 -94.967567
v 99.360222 12.646417 -94.204216
v 98.522850 16.226107 -94.888283
v 99.374237 12.690768 -94.006813
v 98.528687 16.244579 -94.806068
v 99.348595 12.732314 -93.809975
v 98.518005 16.261883 -94.724083
v 99.284279 12.769456 -93.621254
v 98.491226 16.277351 -94.645485
v 99.183769 12.800767 -93.447914
v 98.449364 16.290392 -94.573296
v 99.050926 12.825044 -93.296600
v 98.394035 16.300503 -94.510277
v 98.890854 12.841353 -93.173149
v 98.327370 16.307295 -94.458862
v 98.709702 12.849070 -93.082291
v 98.251923 16.310509 -94.421021
v 98.514435 12.847896 -93.027519
v 98.170601 16.310020 -94.398209
v 97.981079 16.317257 -94.306953
v 98.083702 16.326704 -94.295578
v 97.882988 16.303848 -94.337738
v 97.793198 16.286991 -94.386757
v 97.715157 16.267338 -94.452118
v 97.651863 16.245640 -94.531319
v 97.605751 16.222731 -94.621307
v 97.578598 16.199493 -94.718636
v 97.571434 16.176821 -94.819550
v 97.584541 16.155582 -94.920174
v 97.617416 16.136595 -95.016655
v 97.668800 16.120586 -95.105270
v 97.736710 16.108177 -95.182625
v 97.818542 16.099838 -95.245735
v 97.911156 16.095894 -95.292183
v 98.010979 16.096493 -95.320183
v 98.114182 16.101616 -95.328659
v 98.216797 16.111063 -95.317284
v 98.314888 16.124472 -95.286499
v 98.404678 16.141327 -95.237480
v 98.482719 16.160982 -95.172119
v 98.546013 16.182680 -95.092918
v 98.592125 16.205587 -95.002930
v 98.619286 16.228825 -94.905602
v 98.626450 16.251499 -94.804688
v 98.613335 16.272738 -94.704056
v 98.580460 16.291725 -94.607582
v 98.529076 16.307732 -94.518967
v 98.461166 16.320143 -94.441612
v 98.379333 16.328480 -94.378502
v 98.286728 16.332426 -94.332054
v 98.186905 16.331825 -94.304054
v 98.044479 15.684158 -94.265564
v 98.128082 15.691854 -94.256302
v 97.964569 15.673234 -94.290649
v 97.891418 15.659502 -94.330582
v 97.827843 15.643490 -94.383835
v 97.776276 15.625813 -94.448357
v 97.738708 15.607151 -94.521667
v 97.716583 15.588220 -94.600952
v 97.710747 15.569748 -94.683167
v 97.721428 15.552445 -94.765152
v 97.748215 15.536977 -94.843750
v 97.790077 15.523936 -94.915939
v 97.845398 15.513825 -94.978958
v 97.912064 15.507032 -95.030373
v 97.987511 15.503819 -95.068214
v 98.068840 15.504308 -95.091026
v 98.152916 15.508480 -95.097931
v 98.236519 15.516176 -95.088669
v 98.316429 15.527101 -95.063583
v 98.389580 15.540833 -95.023651
v 98.453156 15.556845 -94.970398
v 98.504723 15.574522 -94.905876
v 98.542290 15.593184 -94.832565
v 98.564415 15.612116 -94.753281
v 98.570251 15.630587 -94.671066
v 98.559570 15.647890 -94.589081
v 98.532784 15.663359 -94.510483
v 98.490921 15.676399 -94.438293
v 98.435600 15.686510 -94.375275
v 98.368927 15.693303 -94.323860
v 98.293488 15.696516 -94.286018
v 98.212158 15.696028 -94.263206
v 98.305244 12.891893 -92.763016
v 98.055260 12.868879 -92.790726
v 97.816307 12.836214 -92.865730
v 97.597572 12.795153 -92.985138
v 97.407455 12.747273 -93.144371
v 97.253273 12.694415 -93.337303
v 97.140938 12.638610 -93.556526
v 97.074776 12.582003 -93.793610
v 97.057327 12.526768 -94.039444
v 97.089264 12.475029 -94.284584
v 97.169357 12.428774 -94.519608
v 97.294525 12.389780 -94.735489
v 97.459961 12.359547 -94.923920
v 97.659309 12.339234 -95.077667
v 97.884911 12.329624 -95.190819
v 98.128090 12.331087 -95.259033
v 98.379501 12.343564 -95.279678
v 98.629486 12.366578 -95.251968
v 98.868439 12.399243 -95.176971
v 99.087173 12.440305 -95.057556
v 99.277290 12.488184 -94.898323
v 99.431480 12.541042 -94.705391
v 99.543808 12.596848 -94.486168
v 99.609970 12.653456 -94.249084
v 99.627419 12.708690 -94.003250
v 99.595482 12.760429 -93.758110
v 99.515388 12.806684 -93.523087
v 99.390221 12.845677 -93.307213
v 99.224785 12.875912 -93.118774
v 99.025436 12.896223 -92.965027
v 98.799835 12.905833 -92.851875
v 98.556656 12.904370 -92.783669
v 98.264977 13.582588 -93.375275
v 98.102272 13.567610 -93.393303
v 97.946747 13.546349 -93.442123
v 97.804382 13.519624 -93.519836
v 97.680649 13.488461 -93.623474
v 97.580292 13.454058 -93.749046
v 97.507179 13.417737 -93.891731
v 97.464119 13.380894 -94.046036
v 97.452766 13.344944 -94.206039
v 97.473549 13.311269 -94.365593
v 97.525673 13.281163 -94.518562
v 97.607147 13.255784 -94.659065
v 97.714821 13.236106 -94.781708
v 97.844566 13.222886 -94.881775
v 97.991402 13.216632 -94.955421
v 98.149673 13.217584 -94.999817
v 98.313309 13.225704 -95.013260
v 98.476013 13.240683 -94.995224
v 98.631538 13.261944 -94.946404
v 98.773903 13.288669 -94.868690
v 98.897644 13.319832 -94.765053
v 98.997993 13.354235 -94.639481
v 99.071106 13.390555 -94.496796
v 99.114166 13.427399 -94.342491
v 99.125526 13.463349 -94.182487
v 99.104736 13.497024 -94.022934
v 99.052612 13.527129 -93.869965
v 98.971138 13.552508 -93.729462
v 98.863464 13.572186 -93.606819
v 98.733719 13.585406 -93.506752
v 98.586884 13.591660 -93.433105
v 98.428612 13.590709 -93.388710
vn 0.0288 -0.2128 -0.9767
vn -0.0660 0.9745 -0.2143
vn 0.0660 -0.9745 0.2143
vn -0.7257 0.1005 0.6807
vn -0.9974 -0.0706 -0.0140
vn -0.6849 -0.2004 -0.7005
vn 0.7256 -0.1006 -0.6807
vn 0.9974 0.0706 0.0140
vn 0.6849 0.2004 0.7005
vn -0.0288 0.2128 0.9767
vn -0.1372 0.3962 0.9079
vn -0.3239 0.3750 0.8686
vn -0.4988 0.3468 0.7943
vn -0.6550 0.3128 0.6879
vn -0.7865 0.2743 0.5534
vn -0.8883 0.2328 0.3959
vn -0.9565 0.1899 0.2216
vn -0.9884 0.1472 0.0371
vn -0.9829 0.1063 -0.1505
vn -0.9401 0.0688 -0.3339
vn -0.8617 0.0363 -0.5061
vn -0.7507 0.0098 -0.6606
vn -0.6113 -0.0095 -0.7913
vn -0.4490 -0.0209 -0.8933
vn -0.2699 -0.0240 -0.9626
vn -0.0809 -0.0187 -0.9966
vn 0.1106 -0.0051 -0.9938
vn 0.2974 0.0161 -0.9546
vn 0.4723 0.0443 -0.8803
vn 0.6285 0.0783 -0.7739
vn 0.7600 0.1168 -0.6394
vn 0.8618 0.1583 -0.4819
vn 0.9300 0.2012 -0.3076
vn 0.9619 0.2439 -0.1231
vn 0.9564 0.2848 0.0645
vn 0.9136 0.3222 0.2479
vn 0.8352 0.3548 0.4202
vn 0.7242 0.3813 0.5746
vn 0.5848 0.4005 0.7053
vn 0.4225 0.4120 0.8073
vn 0.9628 0.0058 -0.2700
vn 0.2434 0.4151 0.8766
vn 0.0545 0.4098 0.9106
vn 0.6089 -0.0255 0.7928
vn -0.0660 0.9746 -0.2142
vn -0.0660 0.9745 -0.2142
vn -0.0659 0.9745 -0.2143
vn -0.0659 0.9746 -0.2142
vn -0.0660 0.9745 -0.2144
vn -0.0659 0.9746 -0.2143
vn -0.7893 0.0805 0.6087
vn 0.9954 0.0494 -0.0818
vn -0.8932 0.0380 0.4480
vn 0.9898 0.0911 0.1097
vn -0.9628 -0.0058 0.2701
vn 0.9461 0.1293 0.2969
vn -0.9954 -0.0494 0.0818
vn 0.8661 0.1625 0.4727
vn -0.9898 -0.0911 -0.1097
vn 0.7527 0.1896 0.6305
vn -0.9461 -0.1293 -0.2969
vn 0.6104 0.2093 0.7640
vn -0.8659 -0.1626 -0.4730
vn 0.4448 0.2209 0.8679
vn 0.1266 -0.2049 -0.9706
vn -0.7528 -0.1895 -0.6304
vn 0.2619 0.2241 0.9387
vn 0.3171 -0.1832 -0.9305
vn -0.6106 -0.2093 -0.7638
vn 0.0691 0.2187 0.9733
vn 0.4957 -0.1544 -0.8546
vn -0.4448 -0.2210 -0.8679
vn -0.1263 0.2049 0.9706
vn 0.6550 -0.1197 -0.7461
vn -0.2622 -0.2241 -0.9386
vn -0.3171 0.1832 0.9305
vn 0.7893 -0.0804 -0.6087
vn -0.0690 -0.2187 -0.9734
vn -0.4955 0.1544 0.8548
vn 0.8932 -0.0381 -0.4480
vn -0.6551 0.1197 0.7460
vn 0.0659 -0.9745 0.2143
vn -0.8263 -0.3869 -0.4092
vn 0.4478 -0.0142 0.8940
vn 0.1383 -0.4281 -0.8931
vn -0.7162 -0.4132 -0.5624
vn 0.2701 -0.0111 0.9628
vn 0.3238 -0.4070 -0.8541
vn -0.5778 -0.4324 -0.6922
vn 0.0827 -0.0164 0.9964
vn 0.4971 -0.3790 -0.7805
vn -0.4168 -0.4437 -0.7933
vn -0.1074 -0.0298 0.9938
vn 0.6521 -0.3454 -0.6749
vn -0.2391 -0.4468 -0.8621
vn -0.2927 -0.0509 0.9548
vn 0.7827 -0.3071 -0.5414
vn -0.0517 -0.4415 -0.8958
vn -0.4662 -0.0789 0.8812
vn 0.8837 -0.2659 -0.3851
vn -0.6212 -0.1126 0.7755
vn 0.9514 -0.2233 -0.2122
vn -0.7517 -0.1508 0.6420
vn 0.9831 -0.1809 -0.0291
vn -0.8527 -0.1920 0.4859
vn 0.9776 -0.1404 0.1570
vn -0.9204 -0.2346 0.3129
vn 0.9351 -0.1033 0.3390
vn -0.9521 -0.2770 0.1298
vn 0.8573 -0.0709 0.5099
vn -0.9466 -0.3175 -0.0563
vn 0.7472 -0.0447 0.6631
vn -0.9041 -0.3547 -0.2383
vn -0.7256 0.1005 0.6807
vn -0.6849 -0.2004 -0.7006
vn 0.7257 -0.1005 -0.6807
vn -0.1371 0.3963 0.9078
vn -0.3238 0.3750 0.8686
vn -0.4986 0.3468 0.7944
vn -0.7865 0.2743 0.5533
vn -0.8883 0.2328 0.3960
vn -0.9565 0.1898 0.2215
vn -0.9401 0.0689 -0.3339
vn -0.8616 0.0363 -0.5062
vn -0.7506 0.0098 -0.6606
vn -0.6112 -0.0095 -0.7914
vn -0.2700 -0.0240 -0.9626
vn -0.0810 -0.0187 -0.9965
vn 0.4722 0.0443 -0.8804
vn 0.6285 0.0783 -0.7738
vn 0.9136 0.3223 0.2479
vn 0.5848 0.4006 0.7054
vn 0.4224 0.4120 0.8074
vn 0.9628 0.0058 -0.2701
vn 0.2433 0.4151 0.8766
vn 0.0544 0.4098 0.9106
vn -0.0659 0.9746 -0.2138
vn -0.0661 0.9745 -0.2144
vn -0.0658 0.9746 -0.2141
vn -0.0662 0.9745 -0.2144
vn -0.0657 0.9746 -0.2141
vn -0.0659 0.9746 -0.2141
vn -0.0661 0.9745 -0.2143
vn -0.0657 0.9746 -0.2142
vn -0.0659 0.9746 -0.2140
vn -0.0661 0.9746 -0.2141
vn -0.0662 0.9745 -0.2142
vn -0.7893 0.0804 0.6087
vn 0.9898 0.0912 0.1097
vn -0.9628 -0.0058 0.2700
vn 0.9461 0.1293 0.2970
vn 0.8660 0.1626 0.4729
vn 0.7528 0.1896 0.6304
vn -0.9461 -0.1294 -0.2970
vn 0.6104 0.2093 0.7639
vn -0.8661 -0.1626 -0.4727
vn 0.4447 0.2209 0.8680
vn 0.1262 -0.2048 -0.9706
vn -0.7528 -0.1896 -0.6304
vn 0.2620 0.2241 0.9387
vn 0.3171 -0.1831 -0.9305
vn -0.6104 -0.2093 -0.7639
vn 0.0692 0.2187 0.9733
vn 0.4954 -0.1544 -0.8548
vn -0.4447 -0.2209 -0.8680
vn -0.1265 0.2048 0.9706
vn -0.2618 -0.2241 -0.9387
vn -0.3171 0.1831 0.9305
vn 0.7892 -0.0804 -0.6088
vn -0.0690 -0.2187 -0.9733
vn -0.4957 0.1544 0.8547
vn 0.8932 -0.0380 -0.4480
vn 0.0659 -0.9745 0.2144
vn 0.0661 -0.9745 0.2142
vn 0.0660 -0.9745 0.2144
vn 0.0660 -0.9746 0.2142
vn 0.0659 -0.9746 0.2142
vn 0.0661 -0.9746 0.2141
vn -0.8263 -0.3870 -0.4093
vn 0.1384 -0.4280 -0.8931
vn -0.5779 -0.4324 -0.6922
vn 0.0826 -0.0164 0.9965
vn 0.4973 -0.3790 -0.7804
vn -0.1073 -0.0298 0.9938
vn 0.6522 -0.3453 -0.6748
vn -0.2393 -0.4468 -0.8621
vn -0.2928 -0.0510 0.9548
vn 0.7827 -0.3071 -0.5413
vn -0.0516 -0.4416 -0.8957
vn -0.4663 -0.0789 0.8811
vn -0.6211 -0.1126 0.7756
vn 0.9514 -0.2233 -0.2121
vn -0.8527 -0.1919 0.4858
vn -0.9204 -0.2346 0.3128
s off
f 7//1 9//1 6//1
f 12//2 7//2 8//2
f 9//3 10//3 2//3
f 2//4 4//4 3//4
f 3//5 5//5 2//5
f 6//6 8//6 7//6
f 12//7 10//7 9//7
f 11//8 13//8 10//8
f 14//9 16//9 15//9
f 15//10 1//10 14//10
f 145//11 81//11 146//11
f 81//12 147//12 146//12
f 83//13 148//13 147//13
f 84//14 149//14 148//14
f 85//15 150//15 149//15
f 86//16 151//16 150//16
f 87//17 152//17 151//17
f 88//18 153//18 152//18
f 89//19 154//19 153//19
f 154//20 91//20 155//20
f 91//21 156//21 155//21
f 92//22 157//22 156//22
f 93//23 158//23 157//23
f 94//24 159//24 158//24
f 95//25 160//25 159//25
f 96//26 161//26 160//26
f 97//27 162//27 161//27
f 98//28 163//28 162//28
f 99//29 164//29 163//29
f 100//30 165//30 164//30
f 101//31 166//31 165//31
f 102//32 167//32 166//32
f 103//33 168//33 167//33
f 104//34 169//34 168//34
f 105//35 170//35 169//35
f 170//36 107//36 171//36
f 107//37 172//37 171//37
f 108//38 173//38 172//38
f 109//39 174//39 173//39
f 110//40 175//40 174//40
f 30//41 120//41 32//41
f 111//42 176//42 175//42
f 112//43 145//43 176//43
f 43//44 189//44 41//44
f 20//2 82//2 18//2
f 20//2 83//2 81//2
f 24//45 83//45 22//45
f 24//2 85//2 84//2
f 28//46 85//46 26//46
f 30//2 86//2 28//2
f 30//45 88//45 87//45
f 34//2 88//2 32//2
f 36//2 89//2 34//2
f 38//47 90//47 36//47
f 40//47 91//47 38//47
f 40//2 93//2 92//2
f 44//2 93//2 42//2
f 46//2 94//2 44//2
f 46//2 96//2 95//2
f 50//2 96//2 48//2
f 52//46 97//46 50//46
f 52//45 99//45 98//45
f 56//2 99//2 54//2
f 56//2 101//2 100//2
f 60//48 101//48 58//48
f 60//49 103//49 102//49
f 64//47 103//47 62//47
f 66//2 104//2 64//2
f 66//47 106//47 105//47
f 70//50 106//50 68//50
f 72//2 107//2 70//2
f 74//2 108//2 72//2
f 74//2 110//2 109//2
f 78//2 110//2 76//2
f 78//2 112//2 111//2
f 18//2 112//2 80//2
f 131//2 123//2 115//2
f 58//51 134//51 60//51
f 32//52 121//52 34//52
f 60//53 135//53 62//53
f 34//54 122//54 36//54
f 62//55 136//55 64//55
f 36//56 123//56 38//56
f 64//57 137//57 66//57
f 38//58 124//58 40//58
f 66//59 138//59 68//59
f 40//60 125//60 42//60
f 68//61 139//61 70//61
f 42//62 126//62 44//62
f 70//63 140//63 72//63
f 44//64 127//64 46//64
f 18//65 113//65 20//65
f 72//66 141//66 74//66
f 46//67 128//67 48//67
f 20//68 115//68 22//68
f 74//69 142//69 76//69
f 48//70 129//70 50//70
f 22//71 116//71 24//71
f 76//72 143//72 78//72
f 50//73 130//73 52//73
f 24//74 117//74 26//74
f 78//75 144//75 80//75
f 52//76 131//76 54//76
f 26//77 118//77 28//77
f 80//78 114//78 18//78
f 54//79 132//79 56//79
f 28//80 119//80 30//80
f 56//81 133//81 58//81
f 19//3 145//3 146//3
f 21//3 146//3 147//3
f 21//3 148//3 23//3
f 23//3 149//3 25//3
f 25//3 150//3 27//3
f 27//3 151//3 29//3
f 29//3 152//3 31//3
f 33//3 152//3 153//3
f 33//3 154//3 35//3
f 35//3 155//3 37//3
f 37//3 156//3 39//3
f 41//3 156//3 157//3
f 43//3 157//3 158//3
f 43//3 159//3 45//3
f 45//3 160//3 47//3
f 47//3 161//3 49//3
f 51//3 161//3 162//3
f 51//82 163//82 53//82
f 53//3 164//3 55//3
f 57//3 164//3 165//3
f 59//3 165//3 166//3
f 61//3 166//3 167//3
f 61//3 168//3 63//3
f 65//3 168//3 169//3
f 65//3 170//3 67//3
f 69//82 170//82 171//82
f 71//3 171//3 172//3
f 71//3 173//3 73//3
f 73//3 174//3 75//3
f 75//82 175//82 77//82
f 77//3 176//3 79//3
f 17//3 176//3 145//3
f 184//3 192//3 200//3
f 71//83 203//83 69//83
f 45//84 190//84 43//84
f 17//85 178//85 177//85
f 71//86 205//86 204//86
f 47//87 191//87 45//87
f 21//88 178//88 19//88
f 75//89 205//89 73//89
f 49//90 192//90 47//90
f 23//91 179//91 21//91
f 77//92 206//92 75//92
f 51//93 193//93 49//93
f 25//94 180//94 23//94
f 79//95 207//95 77//95
f 53//96 194//96 51//96
f 27//97 181//97 25//97
f 17//98 208//98 79//98
f 55//99 195//99 53//99
f 29//100 182//100 27//100
f 57//101 196//101 55//101
f 31//102 183//102 29//102
f 59//103 197//103 57//103
f 33//104 184//104 31//104
f 61//105 198//105 59//105
f 35//106 185//106 33//106
f 63//107 199//107 61//107
f 37//108 186//108 35//108
f 65//109 200//109 63//109
f 39//110 187//110 37//110
f 67//111 201//111 65//111
f 41//112 188//112 39//112
f 69//113 202//113 67//113
f 7//1 12//1 9//1
f 8//2 3//2 12//2
f 3//2 4//2 12//2
f 4//2 15//2 11//2
f 15//2 16//2 11//2
f 11//2 12//2 4//2
f 10//3 13//3 14//3
f 14//3 1//3 10//3
f 1//3 2//3 10//3
f 2//3 5//3 9//3
f 5//3 6//3 9//3
f 2//114 1//114 4//114
f 3//5 8//5 5//5
f 6//115 5//115 8//115
f 12//116 11//116 10//116
f 11//8 16//8 13//8
f 14//9 13//9 16//9
f 15//10 4//10 1//10
f 145//117 82//117 81//117
f 81//118 83//118 147//118
f 83//119 84//119 148//119
f 84//14 85//14 149//14
f 85//120 86//120 150//120
f 86//121 87//121 151//121
f 87//122 88//122 152//122
f 88//18 89//18 153//18
f 89//19 90//19 154//19
f 154//123 90//123 91//123
f 91//124 92//124 156//124
f 92//125 93//125 157//125
f 93//126 94//126 158//126
f 94//24 95//24 159//24
f 95//127 96//127 160//127
f 96//128 97//128 161//128
f 97//27 98//27 162//27
f 98//28 99//28 163//28
f 99//129 100//129 164//129
f 100//130 101//130 165//130
f 101//31 102//31 166//31
f 102//32 103//32 167//32
f 103//33 104//33 168//33
f 104//34 105//34 169//34
f 105//35 106//35 170//35
f 170//131 106//131 107//131
f 107//37 108//37 172//37
f 108//38 109//38 173//38
f 109//132 110//132 174//132
f 110//133 111//133 175//133
f 30//134 119//134 120//134
f 111//135 112//135 176//135
f 112//136 82//136 145//136
f 43//44 190//44 189//44
f 20//47 81//47 82//47
f 20//2 22//2 83//2
f 24//2 84//2 83//2
f 24//2 26//2 85//2
f 28//2 86//2 85//2
f 30//2 87//2 86//2
f 30//47 32//47 88//47
f 34//45 89//45 88//45
f 36//2 90//2 89//2
f 38//2 91//2 90//2
f 40//2 92//2 91//2
f 40//47 42//47 93//47
f 44//48 94//48 93//48
f 46//2 95//2 94//2
f 46//47 48//47 96//47
f 50//2 97//2 96//2
f 52//47 98//47 97//47
f 52//47 54//47 99//47
f 56//48 100//48 99//48
f 56//2 58//2 101//2
f 60//2 102//2 101//2
f 60//47 62//47 103//47
f 64//2 104//2 103//2
f 66//2 105//2 104//2
f 66//2 68//2 106//2
f 70//47 107//47 106//47
f 72//2 108//2 107//2
f 74//48 109//48 108//48
f 74//48 76//48 110//48
f 78//47 111//47 110//47
f 78//48 80//48 112//48
f 18//47 82//47 112//47
f 115//137 113//137 114//137
f 114//138 144//138 115//138
f 144//47 143//47 115//47
f 143//2 142//2 139//2
f 142//139 141//139 139//139
f 141//140 140//140 139//140
f 139//141 138//141 137//141
f 137//142 136//142 139//142
f 136//143 135//143 139//143
f 135//48 134//48 133//48
f 133//144 132//144 131//144
f 131//45 130//45 129//45
f 129//2 128//2 127//2
f 127//145 126//145 125//145
f 125//2 124//2 127//2
f 124//49 123//49 127//49
f 123//2 122//2 119//2
f 122//143 121//143 119//143
f 121//146 120//146 119//146
f 119//49 118//49 115//49
f 118//147 117//147 115//147
f 117//143 116//143 115//143
f 135//2 133//2 139//2
f 133//2 131//2 139//2
f 131//2 129//2 123//2
f 129//2 127//2 123//2
f 115//2 143//2 139//2
f 123//2 119//2 115//2
f 115//2 139//2 131//2
f 58//148 133//148 134//148
f 32//52 120//52 121//52
f 60//53 134//53 135//53
f 34//149 121//149 122//149
f 62//150 135//150 136//150
f 36//151 122//151 123//151
f 64//57 136//57 137//57
f 38//152 123//152 124//152
f 66//59 137//59 138//59
f 40//153 124//153 125//153
f 68//154 138//154 139//154
f 42//155 125//155 126//155
f 70//156 139//156 140//156
f 44//157 126//157 127//157
f 18//158 114//158 113//158
f 72//159 140//159 141//159
f 46//160 127//160 128//160
f 20//161 113//161 115//161
f 74//162 141//162 142//162
f 48//163 128//163 129//163
f 22//164 115//164 116//164
f 76//165 142//165 143//165
f 50//166 129//166 130//166
f 24//74 116//74 117//74
f 78//167 143//167 144//167
f 52//168 130//168 131//168
f 26//169 117//169 118//169
f 80//170 144//170 114//170
f 54//171 131//171 132//171
f 28//172 118//172 119//172
f 56//81 132//81 133//81
f 19//3 17//3 145//3
f 21//3 19//3 146//3
f 21//3 147//3 148//3
f 23//3 148//3 149//3
f 25//3 149//3 150//3
f 27//3 150//3 151//3
f 29//3 151//3 152//3
f 33//3 31//3 152//3
f 33//3 153//3 154//3
f 35//3 154//3 155//3
f 37//3 155//3 156//3
f 41//3 39//3 156//3
f 43//3 41//3 157//3
f 43//3 158//3 159//3
f 45//3 159//3 160//3
f 47//3 160//3 161//3
f 51//82 49//82 161//82
f 51//3 162//3 163//3
f 53//3 163//3 164//3
f 57//3 55//3 164//3
f 59//82 57//82 165//82
f 61//82 59//82 166//82
f 61//3 167//3 168//3
f 65//3 63//3 168//3
f 65//3 169//3 170//3
f 69//3 67//3 170//3
f 71//3 69//3 171//3
f 71//3 172//3 173//3
f 73//3 173//3 174//3
f 75//3 174//3 175//3
f 77//3 175//3 176//3
f 17//3 79//3 176//3
f 208//173 177//173 178//173
f 178//174 179//174 180//174
f 180//175 181//175 184//175
f 181//176 182//176 184//176
f 182//82 183//82 184//82
f 184//3 185//3 188//3
f 185//3 186//3 188//3
f 186//3 187//3 188//3
f 188//82 189//82 190//82
f 190//3 191//3 188//3
f 191//176 192//176 188//176
f 192//176 193//176 194//176
f 194//177 195//177 192//177
f 195//3 196//3 192//3
f 196//3 197//3 200//3
f 197//3 198//3 200//3
f 198//178 199//178 200//178
f 200//3 201//3 202//3
f 202//3 203//3 204//3
f 204//3 205//3 208//3
f 205//3 206//3 208//3
f 206//177 207//177 208//177
f 208//3 178//3 184//3
f 178//82 180//82 184//82
f 200//3 202//3 208//3
f 202//82 204//82 208//82
f 184//3 188//3 192//3
f 192//3 196//3 200//3
f 208//3 184//3 200//3
f 71//179 204//179 203//179
f 45//84 191//84 190//84
f 17//180 19//180 178//180
f 71//86 73//86 205//86
f 47//87 192//87 191//87
f 21//88 179//88 178//88
f 75//181 206//181 205//181
f 49//182 193//182 192//182
f 23//183 180//183 179//183
f 77//92 207//92 206//92
f 51//184 194//184 193//184
f 25//185 181//185 180//185
f 79//186 208//186 207//186
f 53//187 195//187 194//187
f 27//188 182//188 181//188
f 17//189 177//189 208//189
f 55//190 196//190 195//190
f 29//100 183//100 182//100
f 57//191 197//191 196//191
f 31//192 184//192 183//192
f 59//103 198//103 197//103
f 33//104 185//104 184//104
f 61//193 199//193 198//193
f 35//106 186//106 185//106
f 63//194 200//194 199//194
f 37//108 187//108 186//108
f 65//109 201//109 200//109
f 39//110 188//110 187//110
f 67//111 202//111 201//111
f 41//112 189//112 188//112
f 69//113 203//113 202//113
