# Blender v2.91.2 OBJ File: 'pvz_house_w_yard.blend'
# www.blender.org
o lawnmover_Cube.023
v 53.280888 -0.770286 2.434429
v 53.635456 0.872898 2.003418
v 53.280888 -0.770286 -2.288258
v 53.635456 0.872898 -1.857247
v 57.165966 -0.770286 2.434429
v 56.811398 0.872898 2.003418
v 57.165966 -0.770286 -2.288258
v 56.811398 0.872898 -1.857247
vn -0.9775 0.2109 0.0000
vn 0.0000 0.2537 -0.9673
vn 0.9775 0.2109 0.0000
vn 0.0000 0.2537 0.9673
vn 0.0000 -1.0000 0.0000
vn 0.0000 1.0000 0.0000
s off
f 2//1 3//1 1//1
f 4//2 7//2 3//2
f 8//3 5//3 7//3
f 6//4 1//4 5//4
f 7//5 1//5 3//5
f 4//6 6//6 8//6
f 2//1 4//1 3//1
f 4//2 8//2 7//2
f 8//3 6//3 5//3
f 6//4 2//4 1//4
f 7//5 5//5 1//5
f 4//6 2//6 6//6
