# Blender v2.91.2 OBJ File: 'pvz_house_w_yard.blend'
# www.blender.org
o tiang_lawnmover_Cube.026
v 56.207527 -0.216571 1.404789
v 56.207527 5.518710 3.347146
v 56.207527 -0.039344 0.881482
v 56.207527 5.695937 2.823838
v 56.760033 -0.216571 1.404789
v 56.760033 5.518710 3.347146
v 56.760033 -0.039344 0.881482
v 56.760033 5.695937 2.823838
v 53.913372 -0.259178 1.390360
v 53.913372 5.476103 3.332716
v 53.913372 -0.081950 0.867052
v 53.913372 5.653331 2.809409
v 54.465874 -0.259178 1.390360
v 54.465874 5.476103 3.332716
v 54.465874 -0.081950 0.867052
v 54.465874 5.653331 2.809409
vn -1.0000 -0.0000 0.0000
vn 0.0000 0.3208 -0.9472
vn 1.0000 0.0000 0.0000
vn 0.0000 -0.3208 0.9472
vn 0.0000 -0.9472 -0.3208
vn 0.0000 0.9472 0.3208
s off
f 2//1 3//1 1//1
f 4//2 7//2 3//2
f 8//3 5//3 7//3
f 6//4 1//4 5//4
f 7//5 1//5 3//5
f 4//6 6//6 8//6
f 10//1 11//1 9//1
f 12//2 15//2 11//2
f 16//3 13//3 15//3
f 14//4 9//4 13//4
f 15//5 9//5 11//5
f 12//6 14//6 16//6
f 2//1 4//1 3//1
f 4//2 8//2 7//2
f 8//3 6//3 5//3
f 6//4 2//4 1//4
f 7//5 5//5 1//5
f 4//6 2//6 6//6
f 10//1 12//1 11//1
f 12//2 16//2 15//2
f 16//3 14//3 13//3
f 14//4 10//4 9//4
f 15//5 13//5 9//5
f 12//6 10//6 14//6
